<svg xmlns="http://www.w3.org/2000/svg" viewBox="0 0 24 24">
  <path d="M7.1 7.6h9.8v1.35H7.1z"/>
  <path d="M9.4 6.55h5.2v1.05H9.4z"/>
  <path d="M4.75 8.95h14.5c.82 0 1.48.66 1.48 1.48v5.05c0 .82-.66 1.48-1.48 1.48H4.75c-.82 0-1.48-.66-1.48-1.48v-5.05c0-.82.66-1.48 1.48-1.48z"/>
  <path d="M4.75 8.95h4.55l1.75 2.35H4.75z"/>
  <path d="M6.05 9.85h2.05v1.35H6.05z"/>
  <path d="M13.65 11.75h1.35v4.35h-1.35z"/>
  <path d="M12.15 13.25h4.35v1.35H12.15z"/>
  <path d="M7 16.95a1.55 1.55 0 1 0 0 3.1 1.55 1.55 0 0 0 0-3.1z"/>
  <path d="M17 16.95a1.55 1.55 0 1 0 0 3.1 1.55 1.55 0 0 0 0-3.1z"/>
</svg>
