<svg xmlns="http://www.w3.org/2000/svg"
     viewBox="0 0 48 48"
     width="48"
     height="48"
     role="img"
     aria-label="Cave icon">

  <!-- Rocky hill -->
  <path d="M4 40
           L10 24
           L17 17
           L24 7
           L31 17
           L38 23
           L44 40Z"
        fill="#8D6E63"
        stroke="#202020"
        stroke-width="2"
        stroke-linejoin="round"/>

  <!-- Rock faces -->
  <path d="M10 24l8 5
           M17 17l7 6
           M31 17l-7 6
           M38 23l-8 6"
        fill="none"
        stroke="#6D4C41"
        stroke-width="2"
        stroke-linecap="round"/>

  <!-- Cave entrance -->
  <path d="M15 40
           V32
           C15 23 19 18 24 18
           C29 18 33 23 33 32
           V40Z"
        fill="#202020"
        stroke="#202020"
        stroke-width="2"
        stroke-linejoin="round"/>

  <!-- Inner cave -->
  <path d="M20 40
           V33
           C20 27 22 24 24 24
           C26 24 28 27 28 33
           V40Z"
        fill="#455A64"/>

  <!-- Ground -->
  <path d="M4 41h40"
        stroke="#4CAF50"
        stroke-width="3"
        stroke-linecap="round"/>
</svg>
