<svg xmlns="http://www.w3.org/2000/svg" viewBox="0 0 24 24">
  <path fill-rule="evenodd" d="M12 3a9 9 0 1 0 0 18 9 9 0 0 0 0-18zm0 3.4a5.6 5.6 0 1 1 0 11.2 5.6 5.6 0 0 1 0-11.2z"/>
  <path d="M11.15 3.1h1.7v17.8h-1.7z"/>
  <path d="M3.1 11.15h17.8v1.7H3.1z"/>
  <path d="M12 10.35c-.72 0-1.3.58-1.3 1.3s.58 1.3 1.3 1.3 1.3-.58 1.3-1.3-.58-1.3-1.3-1.3z"/>
  <path d="M11.35 12.85h1.3v2.15h-1.3z"/>
  <path d="M10.05 14.55h3.9v1h-3.9z"/>
  <path d="M10.55 15.85h2.9v.95h-2.9z"/>
  <path d="M9.95 15.45 12 13.55l2.05 1.9-.7.75L12 15.05l-1.35-1.05-.7.75z"/>
</svg>
