<svg xmlns="http://www.w3.org/2000/svg"
     viewBox="0 0 48 48"
     width="48"
     height="48"
     role="img"
     aria-label="Earthquake icon">

  <!-- Building -->
  <rect x="16" y="14" width="16" height="22" rx="1"
        fill="#78909C"
        stroke="#202020"
        stroke-width="2"/>

  <rect x="19" y="18" width="4" height="4" fill="#ECEFF1" stroke="#202020" stroke-width="1"/>
  <rect x="25" y="18" width="4" height="4" fill="#ECEFF1" stroke="#202020" stroke-width="1"/>
  <rect x="19" y="26" width="4" height="4" fill="#ECEFF1" stroke="#202020" stroke-width="1"/>
  <rect x="25" y="26" width="4" height="4" fill="#ECEFF1" stroke="#202020" stroke-width="1"/>

  <!-- Cracked ground -->
  <path d="M4 38 H18 L22 42 H28 L32 38 H44"
        fill="none"
        stroke="#5D4037"
        stroke-width="3"
        stroke-linecap="round"
        stroke-linejoin="round"/>

  <path d="M22 38 L24 34 L26 38 M30 38 L32 35 L34 38"
        fill="none"
        stroke="#5D4037"
        stroke-width="2"
        stroke-linecap="round"/>

  <!-- Seismic waves -->
  <path d="M6 10 C10 14 10 18 6 22 M38 8 C34 12 34 16 38 20"
        fill="none" stroke="#FF6D00" stroke-width="2.5" stroke-linecap="round"/>

  <path d="M4 42 H44"
        stroke="#4CAF50"
        stroke-width="3"
        stroke-linecap="round"/>
</svg>
