<?xml version="1.0" encoding="UTF-8"?>
<svg version="1.1" xmlns="http://www.w3.org/2000/svg" width="1254" height="1254">
<path d="M0 0 C413.82 0 827.64 0 1254 0 C1254 413.82 1254 827.64 1254 1254 C840.18 1254 426.36 1254 0 1254 C0 840.18 0 426.36 0 0 Z " fill="#FAFAFA" transform="translate(0,0)"/>
<path d="M0 0 C1.80200195 0.74072266 1.80200195 0.74072266 2.80200195 1.74072266 C3.83095619 13.20279423 1.79330652 25.45666343 -0.19799805 36.74072266 C1.78200195 37.40072266 3.76200195 38.06072266 5.80200195 38.74072266 C6.13200195 37.75072266 6.46200195 36.76072266 6.80200195 35.74072266 C8.1574707 34.33837891 8.1574707 34.33837891 9.98950195 32.80322266 C10.69977539 32.19994141 11.41004883 31.59666016 12.1418457 30.97509766 C13.01969727 30.23775391 13.89754883 29.50041016 14.80200195 28.74072266 C16.59530221 27.21623545 18.38554239 25.68824289 20.17431641 24.15844727 C21.40662771 23.10495008 22.64078312 22.0536054 23.87695312 21.00463867 C24.74477417 20.26491821 24.74477417 20.26491821 25.63012695 19.51025391 C26.1837793 19.0392627 26.73743164 18.56827148 27.30786133 18.08300781 C28.97183679 16.637636 28.97183679 16.637636 30.91137695 14.37744141 C32.80200195 12.74072266 32.80200195 12.74072266 35.55200195 12.49072266 C36.29450195 12.57322266 37.03700195 12.65572266 37.80200195 12.74072266 C38.58544652 27.88731754 36.02176283 42.72957622 28.45825195 56.11962891 C27.47598679 58.87148504 27.47598679 58.87148504 29.21606445 61.75634766 C30.31047852 63.35736328 30.31047852 63.35736328 31.42700195 64.99072266 C40.66908028 79.02086565 40.66908028 79.02086565 39.80200195 85.74072266 C33.63849486 86.07091054 29.49013063 85.06221198 23.80200195 82.74072266 C24.82017074 86.06089751 25.87084168 89.36995591 26.92700195 92.67822266 C27.2105957 93.60441406 27.49418945 94.53060547 27.78637695 95.48486328 C30.59528071 104.18635863 35.00882537 110.57584152 40.7434082 117.61572266 C44.89285554 122.72455134 48.32934276 128.12060683 51.73950195 133.74072266 C57.10175124 142.44539092 62.56608298 151.06910573 68.17700195 159.61572266 C69.23286499 161.22435181 69.23286499 161.22435181 70.31005859 162.86547852 C71.74551854 165.05039896 73.18163824 167.23488609 74.6184082 169.41894531 C78.31402456 175.0408769 81.99549095 180.67204786 85.67700195 186.30322266 C86.38195801 187.3813623 87.08691406 188.45950195 87.81323242 189.5703125 C91.98572012 195.95424813 96.15278331 202.34163436 100.30200195 208.74072266 C100.97851807 209.78208374 100.97851807 209.78208374 101.66870117 210.84448242 C104.90440827 215.84482803 105.94023625 218.25882143 105.92700195 224.24072266 C105.92958008 225.40603516 105.9321582 226.57134766 105.93481445 227.77197266 C105.80200195 230.74072266 105.80200195 230.74072266 104.80200195 232.74072266 C104.39617657 238.72664704 105.20404098 242.2330454 107.80200195 247.74072266 C108.80200195 250.17822266 108.80200195 250.17822266 108.80200195 252.74072266 C105.94707701 259.32901099 100.91565399 264.75552739 94.4465332 267.87744141 C91.53902516 268.82656885 89.04061228 269.04626114 85.98950195 269.17822266 C82.18984715 269.42936263 79.06087417 269.81629463 75.55200195 271.30322266 C69.05466668 274.02272587 63.31949388 273.01652863 56.9074707 270.65478516 C50.77108002 267.99074913 46.27288379 264.44868712 43.7746582 258.15087891 C43.10274973 256.26192867 42.45290163 254.36493113 41.8293457 252.45947266 C39.74734868 246.94970108 37.4576346 244.13487183 32.3840332 241.10400391 C31.30178467 240.44899902 30.21953613 239.79399414 29.10449219 239.11914062 C27.9412276 238.43039068 26.77789624 237.7417535 25.61450195 237.05322266 C24.42893549 236.33978985 23.2441237 235.62510149 22.06005859 234.90917969 C19.71742207 233.49393356 17.37189092 232.08371333 15.02368164 230.67773438 C10.90183978 228.19950663 6.81566207 225.66810814 2.73950195 223.11572266 C2.10044922 222.72231689 1.46139648 222.32891113 0.80297852 221.92358398 C-1.75176996 220.34107826 -4.20429627 218.73575475 -6.56518555 216.87353516 C-11.94508254 212.63052205 -17.03216242 212.05891478 -23.68237305 211.4855957 C-35.15650285 210.4231296 -44.18714245 205.74363437 -53.19799805 198.74072266 C-53.94952148 198.21736328 -54.70104492 197.69400391 -55.4753418 197.15478516 C-56.04381836 196.68814453 -56.61229492 196.22150391 -57.19799805 195.74072266 C-57.19799805 195.08072266 -57.19799805 194.42072266 -57.19799805 193.74072266 C-58.59018555 194.82353516 -58.59018555 194.82353516 -60.01049805 195.92822266 C-60.79360352 196.53730469 -60.79360352 196.53730469 -61.5925293 197.15869141 C-65.84745983 201.35150617 -67.44865077 206.82920209 -69.26049805 212.36572266 C-69.52507813 213.16389404 -69.7896582 213.96206543 -70.06225586 214.78442383 C-71.73847878 219.96886175 -73.04418164 225.06786564 -73.77612305 230.47900391 C-74.19799805 232.74072266 -74.19799805 232.74072266 -75.1862793 235.13134766 C-76.36372054 238.16814591 -76.74318858 240.94633992 -77.13549805 244.17822266 C-77.78386652 249.07927568 -78.60761868 253.85644456 -79.69799805 258.67822266 C-81.16108443 265.27674226 -82.08530544 271.866834 -82.92114258 278.56982422 C-84.27243061 289.16563833 -85.74078628 299.75004921 -87.76049805 310.24072266 C-91.57526135 328.88974576 -91.57526135 328.88974576 -87.30737305 346.93994141 C-85.57203316 351.32106358 -84.38314898 355.83655396 -83.1394043 360.37744141 C-82.36512244 363.1436517 -81.49455837 365.83485124 -80.57299805 368.55322266 C-78.41905005 375.78013015 -77.76728186 383.25232832 -77.19799805 390.74072266 C-77.10977783 391.83320312 -77.10977783 391.83320312 -77.01977539 392.94775391 C-75.82357472 410.05152473 -79.38184211 428.03035225 -86.53491211 443.59985352 C-87.31752252 446.12662474 -87.15822088 447.29892217 -86.19799805 449.74072266 C-82.40561178 454.23647693 -77.87958671 457.0273323 -72.88549805 459.99072266 C-72.09296631 460.46743408 -71.30043457 460.94414551 -70.48388672 461.43530273 C-62.80902158 466.02645524 -55.04438643 470.45003444 -47.19799805 474.74072266 C-46.52542969 475.10858887 -45.85286133 475.47645508 -45.15991211 475.85546875 C-43.15478938 476.94791163 -41.14621244 478.03361009 -39.13549805 479.11572266 C-38.540354 479.43758545 -37.94520996 479.75944824 -37.33203125 480.09106445 C-33.37051394 482.2027939 -29.33019838 483.99213009 -25.19799805 485.74072266 C-22.84091831 486.8596064 -20.48683856 487.98482766 -18.13549805 489.11572266 C-13.13135273 491.4929264 -8.13042726 493.5563366 -2.88549805 495.36572266 C10.93719209 500.18578333 22.96116816 507.19785459 29.80200195 520.74072266 C31.34295209 524.52543589 32.74287511 528.34565992 34.1262207 532.18994141 C44.38011768 560.44223983 59.00989969 588.23765864 76.55639648 612.64892578 C82.8247158 621.60911127 84.84669544 631.70050069 86.8684082 642.26220703 C88.13750452 648.54465404 89.97242489 653.99736756 92.80200195 659.74072266 C94.17547253 662.72428925 95.50237461 665.72424443 96.80200195 668.74072266 C97.18227539 669.60310547 97.56254883 670.46548828 97.9543457 671.35400391 C103.9476148 685.81061147 111.5365145 705.80063668 107.02075195 721.44775391 C105.56696886 724.18291633 104.71759462 724.78975874 101.80200195 725.74072266 C86.41214097 727.98399053 71.02677545 720.24939539 58.98950195 711.36572266 C52.54493363 706.09829873 45.43847605 699.83251541 44.36450195 691.24072266 C44.5225865 684.2059603 48.25417071 677.5161442 51.61450195 671.49072266 C53.21715726 667.77931038 53.4839266 664.71995355 52.80200195 660.74072266 C50.30865787 655.3006992 45.92877577 652.26357692 41.23950195 648.76806641 C36.76471691 645.04625 34.14119295 641.40653071 32.80200195 635.74072266 C32.68421563 633.92905676 32.58186029 632.11636272 32.48950195 630.30322266 C30.65533017 606.51721711 14.10313136 578.94722849 -1.11206055 561.24072266 C-3.19799805 558.74072266 -3.19799805 558.74072266 -3.19799805 556.74072266 C-3.85799805 556.53447266 -4.51799805 556.32822266 -5.19799805 556.11572266 C-10.84959769 553.52540615 -15.35572726 549.75695659 -19.44799805 545.11572266 C-27.71127297 536.76121476 -42.76842778 536.12680076 -53.88549805 534.17822266 C-55.5178047 533.88541111 -57.1499672 533.59179481 -58.78198242 533.29736328 C-65.03997048 532.17209296 -71.30179706 531.06922178 -77.56640625 529.98144531 C-86.99496092 528.34030381 -96.39146039 526.57071911 -105.77490234 524.68847656 C-108.02657177 524.23750335 -110.27923138 523.7917263 -112.53198242 523.34619141 C-125.31330897 520.80247 -137.7675485 517.69039776 -150.19799805 513.74072266 C-149.84608398 514.44455078 -149.49416992 515.14837891 -149.1315918 515.87353516 C-148.08167318 517.9733724 -147.03179021 520.07322746 -145.98193359 522.1730957 C-144.78574158 524.56531603 -143.589335 526.95742759 -142.39257812 529.34936523 C-137.2871978 539.55468442 -137.2871978 539.55468442 -134.8347168 544.50244141 C-128.4978479 557.27920521 -121.98801001 569.7729291 -114.19799805 581.74072266 C-113.08275503 583.50460126 -111.97818879 585.27528518 -110.88549805 587.05322266 C-110.41499023 587.81248047 -109.94448242 588.57173828 -109.4597168 589.35400391 C-104.13941137 599.41811108 -104.75082142 612.98080578 -107.76049805 623.74072266 C-112.64129972 637.23167095 -120.45308966 644.21653582 -131.94433594 652.00732422 C-142.67607263 659.40012937 -152.17377901 668.51879329 -161.70825195 677.36425781 C-163.25423664 678.79268483 -164.80877242 680.21124719 -166.3659668 681.62744141 C-176.24185867 690.60266522 -176.24185867 690.60266522 -185.32299805 700.36572266 C-188.65692926 704.22128936 -192.17804455 707.86780089 -195.76049805 711.49072266 C-196.30270996 712.0458252 -196.84492187 712.60092773 -197.40356445 713.17285156 C-203.31687978 719.10050655 -208.73060369 722.17881803 -216.82299805 724.11572266 C-229.85243353 727.53688127 -240.36828004 733.91029858 -251.63867188 741.15869141 C-256.72616655 744.39181214 -261.4768106 746.83779249 -267.19799805 748.74072266 C-268.51258667 749.23520521 -269.82533186 749.73463885 -271.13549805 750.24072266 C-289.55364913 757.11586746 -289.55364913 757.11586746 -299.19799805 755.74072266 C-301.69960622 753.86451652 -302.81745456 752.50180962 -304.19799805 749.74072266 C-305.51856009 729.95394051 -301.52976773 710.0983336 -288.1652832 694.76538086 C-281.83586442 687.87071205 -281.83586442 687.87071205 -276.26049805 687.42822266 C-269.59704869 687.49281183 -263.28518909 689.8278006 -257.65112305 693.31884766 C-253.93542369 695.47253327 -250.46169714 695.95817908 -246.19799805 695.74072266 C-241.91100692 693.7401268 -240.83229341 691.10190284 -239.26049805 686.86572266 C-237.43623936 682.00103281 -235.67189923 678.5582902 -231.19799805 675.74072266 C-228.32237517 674.62939171 -225.41746647 673.73708731 -222.4675293 672.84228516 C-200.29589525 665.37227225 -172.35817724 641.25320154 -161.19799805 620.74072266 C-160.41129254 618.48311409 -160.41129254 618.48311409 -160.19799805 615.74072266 C-160.1103418 615.00724609 -160.02268555 614.27376953 -159.93237305 613.51806641 C-159.53396012 607.65958536 -160.45370684 603.98311093 -163.9753418 599.28759766 C-171.44296176 590.73067637 -179.6014514 582.91008512 -188.51049805 575.86572266 C-191.33466802 573.63265802 -194.07689034 571.31894441 -196.82299805 568.99072266 C-207.22798748 560.3176605 -218.03739523 552.1909651 -229.13549805 544.42822266 C-231.82598327 542.53658957 -234.51320973 540.64043104 -237.19799805 538.74072266 C-238.2137793 538.02271484 -239.22956055 537.30470703 -240.27612305 536.56494141 C-246.12717084 532.19417367 -250.24680522 527.49487534 -253.19799805 520.74072266 C-253.19799805 519.75072266 -253.19799805 518.76072266 -253.19799805 517.74072266 C-254.16902466 517.90677002 -254.16902466 517.90677002 -255.15966797 518.07617188 C-258.2336803 518.59713578 -261.30954049 519.10637443 -264.38549805 519.61572266 C-265.40192383 519.78974609 -266.41834961 519.96376953 -267.46557617 520.14306641 C-286.9254925 523.33709523 -306.24986088 524.11512542 -325.94799805 524.05322266 C-327.15322113 524.05139984 -328.35844421 524.04957703 -329.60018921 524.04769897 C-359.19681756 523.97252034 -389.74199063 523.1259131 -418.2331543 514.20947266 C-421.6829055 513.12990507 -425.05454283 512.36297409 -428.61987305 511.76806641 C-434.41110336 510.78078594 -439.87295987 509.13180412 -445.44799805 507.30322266 C-446.38901367 507.00351562 -447.3300293 506.70380859 -448.29956055 506.39501953 C-453.39966419 504.7485575 -458.30162516 502.91549161 -463.19799805 500.74072266 C-465.19063396 500.05235752 -467.18841141 499.37790866 -469.19799805 498.74072266 C-469.3681543 499.40716797 -469.53831055 500.07361328 -469.71362305 500.76025391 C-476.69431284 527.30915393 -489.88985352 550.22848203 -505.19799805 572.74072266 C-507.66433307 576.38121718 -510.12038159 580.02847638 -512.57299805 583.67822266 C-513.1436499 584.51764404 -513.71430176 585.35706543 -514.30224609 586.22192383 C-524.28147051 600.71129379 -524.28147051 600.71129379 -526.19799805 617.74072266 C-521.41822623 635.59288244 -504.15395225 647.82337017 -490.02172852 658.36279297 C-487.24780326 660.45864761 -484.52214047 662.61498984 -481.7890625 664.76367188 C-474.88641549 670.18490863 -467.90091358 675.44905873 -460.76049805 680.55322266 C-458.55980958 682.13820865 -456.36119779 683.72597553 -454.16479492 685.31689453 C-452.93159439 686.20964844 -451.69624014 687.09944296 -450.45776367 687.98486328 C-441.77451567 694.25431787 -437.23707511 701.16024174 -432.7800293 710.81103516 C-428.98529095 718.90777765 -424.40681121 725.8577631 -419.19799805 733.11572266 C-412.85902675 741.98638645 -407.86917825 750.48549141 -404.19799805 760.74072266 C-403.85639648 761.65337891 -403.51479492 762.56603516 -403.1628418 763.50634766 C-400.37544679 771.33698294 -398.32680242 780.62425195 -400.82299805 788.78369141 C-402.09317354 790.8725347 -402.98709169 791.66573472 -405.19799805 792.74072266 C-421.90213717 795.57685323 -440.926944 787.86475156 -454.6394043 778.68994141 C-460.04923514 774.56855883 -464.68306336 770.68989404 -465.88549805 763.80322266 C-465.29316184 758.35153573 -463.6499248 752.64457616 -461.19799805 747.74072266 C-460.72129022 742.97364437 -460.69380279 740.69509224 -462.94799805 736.42822266 C-465.61865902 733.56680018 -468.30389815 733.11670873 -472.07299805 732.36572266 C-477.68272775 731.17640496 -480.25368345 729.55632674 -483.71362305 725.03369141 C-485.20058686 722.73672362 -486.50926575 720.39021605 -487.82299805 717.99072266 C-494.2778292 706.83991645 -506.17904423 698.95100329 -516.2512207 691.24169922 C-518.35487026 689.61977328 -520.43948716 687.97535354 -522.5222168 686.32666016 C-537.36929582 674.60105212 -552.91503088 664.18810684 -568.79956055 653.92895508 C-593.05338746 638.19839381 -593.05338746 638.19839381 -597.19799805 628.74072266 C-598.5141637 620.7634203 -595.88972058 614.57678493 -592.51049805 607.49072266 C-591.58564168 605.45561657 -590.66374925 603.41916084 -589.74487305 601.38134766 C-589.08068359 599.92245117 -589.08068359 599.92245117 -588.40307617 598.43408203 C-580.23523923 580.17890028 -574.62420208 556.90724107 -581.20581055 537.22509766 C-582.76603776 533.318387 -584.32670601 529.41878204 -586.0144043 525.56494141 C-587.23063407 522.66284858 -588.23784932 519.73620969 -589.19799805 516.74072266 C-590.12805664 517.50642578 -590.12805664 517.50642578 -591.0769043 518.28759766 C-593.54133538 520.31079872 -596.01042054 522.32815402 -598.48266602 524.34179688 C-599.62891717 525.27661315 -600.77376992 526.21314667 -601.91723633 527.15136719 C-611.69332234 535.16334745 -621.76784527 542.60336933 -632.19799805 549.74072266 C-633.36081299 550.54050537 -633.36081299 550.54050537 -634.54711914 551.35644531 C-649.72863702 561.76320529 -665.42331991 571.27397189 -681.19799805 580.74072266 C-708.20840791 596.18418441 -708.20840791 596.18418441 -731.19799805 616.74072266 C-731.95725586 617.59794922 -732.71651367 618.45517578 -733.4987793 619.33837891 C-757.26302988 647.20699056 -768.96552148 682.86745091 -780.76049805 716.97900391 C-781.05110107 717.8169751 -781.3417041 718.65494629 -781.64111328 719.51831055 C-783.0323666 723.53501242 -784.4100042 727.5553432 -785.76049805 731.5859375 C-789.31014684 742.04530858 -793.14587405 751.11399389 -801.29174805 758.79541016 C-807.53656647 765.16819617 -812.37291376 772.93322379 -817.26049805 780.36572266 C-821.26099683 786.43697771 -825.41238238 792.25106016 -830.19799805 797.74072266 C-830.83608398 798.47419922 -831.47416992 799.20767578 -832.1315918 799.96337891 C-836.7241297 804.88581556 -841.81256813 808.79444172 -847.32299805 812.61572266 C-847.99202148 813.08034912 -848.66104492 813.54497559 -849.3503418 814.02368164 C-854.36915588 817.40482303 -859.26662697 820.14248366 -865.26049805 821.36572266 C-869.09250945 820.55040108 -870.54434018 819.17035095 -872.8737793 816.07666016 C-879.87069141 803.73402462 -879.0326294 783.52060697 -875.95581055 770.06494141 C-873.85729739 763.62877992 -871.33567638 757.15054395 -865.19799805 753.74072266 C-859.7953995 751.54778598 -854.69612768 750.61808436 -848.88549805 750.30322266 C-844.99180573 750.06299485 -843.41761885 749.87421766 -840.01049805 747.80322266 C-837.43816009 744.87607946 -837.08491498 743.32111641 -837.0925293 739.52197266 C-836.96635725 729.26486992 -836.66076542 722.06801945 -830.19799805 713.74072266 C-807.7171323 679.53272487 -795.99903818 637.61191273 -789.72973633 597.46704102 C-788.39892902 589.00915206 -787.02449942 580.6420719 -780.19799805 574.74072266 C-776.78522426 572.47753023 -773.22372256 570.52248412 -769.63549805 568.55322266 C-760.65569503 563.44520219 -753.35790903 558.17643915 -746.19799805 550.74072266 C-745.6570752 550.22243896 -745.11615234 549.70415527 -744.55883789 549.17016602 C-740.04378818 544.81881331 -736.3187912 540.16473777 -732.69799805 535.05322266 C-732.13193848 534.25577637 -731.56587891 533.45833008 -730.98266602 532.63671875 C-726.67789919 526.51551108 -722.45526957 520.49895185 -719.19799805 513.74072266 C-718.88072754 513.09103516 -718.56345703 512.44134766 -718.23657227 511.77197266 C-706.43752039 486.61281616 -712.32034771 458.51218801 -717.53369141 432.38574219 C-721.58311653 410.16673552 -720.60748069 386.35090441 -714.19799805 364.74072266 C-713.95210937 363.89396973 -713.7062207 363.0472168 -713.45288086 362.17480469 C-710.8865409 353.50460124 -708.0422502 345.4345349 -703.19799805 337.74072266 C-726.13981859 346.58253378 -743.73239999 362.74672255 -754.3112793 385.09228516 C-755.36534471 387.61683688 -756.29486036 390.15788571 -757.19799805 392.74072266 C-757.42874023 393.39347168 -757.65948242 394.0462207 -757.8972168 394.71875 C-758.69641439 396.99311624 -759.48092876 399.27205729 -760.26049805 401.55322266 C-760.50614502 402.26365723 -760.75179199 402.9740918 -761.00488281 403.70605469 C-762.83806498 409.1914667 -764.16182355 414.73327044 -765.42773438 420.37426758 C-771.47333946 446.79672351 -778.55572216 475.12182292 -797.19799805 495.74072266 C-797.82834961 496.48837891 -798.45870117 497.23603516 -799.1081543 498.00634766 C-801.92355141 501.3298313 -804.54462457 504.31256589 -808.19799805 506.74072266 C-808.85799805 506.74072266 -809.51799805 506.74072266 -810.19799805 506.74072266 C-810.19799805 507.40072266 -810.19799805 508.06072266 -810.19799805 508.74072266 C-810.85799805 508.74072266 -811.51799805 508.74072266 -812.19799805 508.74072266 C-811.80612305 507.48259766 -811.41424805 506.22447266 -811.01049805 504.92822266 C-810.40531755 502.86601991 -809.80132167 500.80346942 -809.19799805 498.74072266 C-809.00512207 498.11794434 -808.81224609 497.49516602 -808.61352539 496.85351562 C-803.1574905 479.12461167 -800.74650595 460.28886294 -801.19799805 441.74072266 C-801.48296143 442.99840454 -801.48296143 442.99840454 -801.77368164 444.28149414 C-808.31807487 472.76028546 -816.2350416 503.45562119 -836.19799805 525.74072266 C-836.95725586 526.64177734 -837.71651367 527.54283203 -838.4987793 528.47119141 C-844.38832907 535.28127687 -850.74376019 540.70324865 -858.19799805 545.74072266 C-859.28661133 546.47935547 -859.28661133 546.47935547 -860.3972168 547.23291016 C-875.71134568 556.62557587 -897.57788396 560.23127525 -915.2019043 557.22900391 C-915.86061523 557.06787109 -916.51932617 556.90673828 -917.19799805 556.74072266 C-917.19799805 556.08072266 -917.19799805 555.42072266 -917.19799805 554.74072266 C-916.17061523 554.25603516 -915.14323242 553.77134766 -914.0847168 553.27197266 C-903.61718831 548.24457115 -893.33524793 543.21885954 -886.19799805 533.74072266 C-886.98561523 534.06685547 -887.77323242 534.39298828 -888.5847168 534.72900391 C-909.74051407 543.21635926 -933.71064181 545.84133117 -955.27124023 536.87890625 C-967.62011075 531.45476783 -980.99850267 523.59871504 -988.19799805 511.74072266 C-988.19799805 510.75072266 -988.19799805 509.76072266 -988.19799805 508.74072266 C-987.22527954 508.77214355 -987.22527954 508.77214355 -986.23291016 508.80419922 C-973.22092542 509.16823527 -961.55171424 509.27487842 -949.19799805 504.74072266 C-948.15772461 504.37849609 -947.11745117 504.01626953 -946.0456543 503.64306641 C-924.24306124 495.36537663 -909.82752513 478.18941983 -898.19799805 458.74072266 C-898.61307617 459.15322266 -899.0281543 459.56572266 -899.45581055 459.99072266 C-912.74068203 472.4418156 -929.32277114 479.55132183 -947.50195312 479.33276367 C-959.3301227 478.84113352 -968.42879393 474.74069834 -977.19799805 466.74072266 C-977.86959961 466.13744141 -978.54120117 465.53416016 -979.2331543 464.91259766 C-982.53272091 461.7959639 -984.97058818 459.24122551 -986.19799805 454.74072266 C-980.44799805 454.61572266 -980.44799805 454.61572266 -978.19799805 455.74072266 C-959.54272686 456.61170709 -942.90351365 453.33142725 -928.57299805 440.36572266 C-927.78924805 439.49947266 -927.00549805 438.63322266 -926.19799805 437.74072266 C-925.43616211 437.00208984 -925.43616211 437.00208984 -924.65893555 436.24853516 C-912.06197626 423.3064537 -906.38732483 404.13987808 -901.34082031 387.26489258 C-891.11638286 353.11885214 -874.32699274 321.95981593 -843.19799805 302.74072266 C-842.63612793 302.3878418 -842.07425781 302.03496094 -841.49536133 301.67138672 C-833.1249126 296.45313801 -824.61777017 292.73351883 -815.19799805 289.74072266 C-814.16288086 289.38236328 -813.12776367 289.02400391 -812.0612793 288.65478516 C-779.25514956 277.70568791 -738.75966094 280.51937161 -706.32495117 291.99267578 C-704.19403694 292.74211577 -702.05252224 293.44313655 -699.90112305 294.13134766 C-695.01645136 295.70482838 -690.17270478 297.28729232 -685.4675293 299.34619141 C-681.85162302 300.88845968 -680.05577647 301.54442649 -676.19799805 300.74072266 C-674.46988415 299.28217527 -673.00788148 297.654048 -671.4753418 295.99072266 C-653.02566624 277.76256979 -626.71838583 266.35308791 -602.07299805 259.74072266 C-601.38931152 259.55727295 -600.705625 259.37382324 -600.0012207 259.18481445 C-587.53633847 256.12101078 -575.04326605 255.41972665 -562.26049805 255.55322266 C-560.84350698 255.56211103 -559.42651476 255.57081717 -558.00952148 255.5793457 C-532.58482855 255.77366685 -532.58482855 255.77366685 -521.19018555 258.93212891 C-518.06204644 259.77746154 -514.94077906 260.43259045 -511.76049805 261.05322266 C-504.55432631 262.46590283 -497.35734901 263.92025406 -490.16452026 265.39950562 C-488.2315271 265.79633931 -486.29789719 266.19006736 -484.36425781 266.58374023 C-474.19999527 268.67588484 -474.19999527 268.67588484 -470.28393555 269.83447266 C-463.72879027 271.75952798 -456.93766385 272.68521986 -450.19799805 273.74072266 C-449.3241748 273.881875 -448.45035156 274.02302734 -447.55004883 274.16845703 C-433.8865269 276.30966486 -420.37924088 277.03272989 -406.57299805 277.05322266 C-405.44164932 277.05846451 -405.44164932 277.05846451 -404.28744507 277.06381226 C-371.25708428 277.1488968 -342.44131665 268.1997881 -315.5534668 249.17431641 C-313.19799805 247.74072266 -313.19799805 247.74072266 -310.19799805 247.74072266 C-310.19799805 247.08072266 -310.19799805 246.42072266 -310.19799805 245.74072266 C-311.3581543 245.78712891 -312.51831055 245.83353516 -313.71362305 245.88134766 C-325.2343702 246.20133409 -335.3588651 245.47090156 -345.19799805 238.74072266 C-345.19799805 238.08072266 -345.19799805 237.42072266 -345.19799805 236.74072266 C-344.54573242 236.50998047 -343.8934668 236.27923828 -343.22143555 236.04150391 C-342.34745117 235.71537109 -341.4734668 235.38923828 -340.57299805 235.05322266 C-339.71448242 234.73998047 -338.8559668 234.42673828 -337.97143555 234.10400391 C-331.08910899 230.72100113 -327.46373216 225.64918758 -323.32299805 219.42822266 C-318.40348157 212.24286762 -313.5295826 205.62844569 -306.19799805 200.74072266 C-307.97303711 200.32113281 -307.97303711 200.32113281 -309.78393555 199.89306641 C-320.41614623 197.24597767 -329.70094965 194.24834498 -337.19799805 185.74072266 C-337.19799805 185.08072266 -337.19799805 184.42072266 -337.19799805 183.74072266 C-336.58956055 183.73814453 -335.98112305 183.73556641 -335.35424805 183.73291016 C-321.48722374 183.12112967 -309.80321387 177.31598733 -298.91772461 169.04394531 C-296.31966857 167.0751175 -293.68372271 165.15872847 -291.05175781 163.2355957 C-289.71333536 162.25543057 -288.37777201 161.27134669 -287.04541016 160.28295898 C-282.40711818 156.84528272 -282.40711818 156.84528272 -280.19799805 155.74072266 C-281.4303418 155.71494141 -282.66268555 155.68916016 -283.93237305 155.66259766 C-302.94991041 155.08182141 -302.94991041 155.08182141 -311.19799805 150.74072266 C-311.85799805 149.75072266 -312.51799805 148.76072266 -313.19799805 147.74072266 C-312.67592773 147.52158203 -312.15385742 147.30244141 -311.6159668 147.07666016 C-300.47912708 142.27865215 -291.01280459 136.2564908 -281.33398438 128.99951172 C-272.40777582 122.33475106 -263.20896418 116.63947058 -253.19799805 111.74072266 C-253.87378906 111.6247876 -254.54958008 111.50885254 -255.24584961 111.3894043 C-258.3135023 110.86223382 -261.3807519 110.3327532 -264.44799805 109.80322266 C-265.51147461 109.62082031 -266.57495117 109.43841797 -267.6706543 109.25048828 C-268.69545898 109.07324219 -269.72026367 108.89599609 -270.77612305 108.71337891 C-272.19006348 108.46986694 -272.19006348 108.46986694 -273.63256836 108.22143555 C-275.85019552 107.80589426 -278.0175697 107.31723509 -280.19799805 106.74072266 C-278.90674881 102.86697495 -277.536358 102.47058088 -274.0456543 100.44775391 C-272.96727295 99.82094727 -271.8888916 99.19414062 -270.77783203 98.54833984 C-269.6059397 97.88232797 -268.43348317 97.21730799 -267.26049805 96.55322266 C-266.67342072 96.21746216 -266.08634338 95.88170166 -265.48147583 95.5357666 C-234.32205804 77.74072266 -234.32205804 77.74072266 -223.19799805 77.74072266 C-223.19799805 77.08072266 -223.19799805 76.42072266 -223.19799805 75.74072266 C-224.33237305 75.65822266 -225.46674805 75.57572266 -226.63549805 75.49072266 C-231.60506764 74.89508551 -235.75266325 72.95309993 -240.19799805 70.74072266 C-240.19799805 70.08072266 -240.19799805 69.42072266 -240.19799805 68.74072266 C-239.6246875 68.55485596 -239.05137695 68.36898926 -238.46069336 68.17749023 C-223.97417443 63.46473245 -223.97417443 63.46473245 -209.81518555 57.86181641 C-201.47447268 54.28900358 -193.03292438 51.77599364 -184.19799805 49.74072266 C-189.48812472 48.16494024 -194.80003816 46.89130821 -200.19799805 45.74072266 C-197.48184503 42.78663853 -195.11447298 40.98074394 -191.4440918 39.37353516 C-190.05262939 38.76167358 -190.05262939 38.76167358 -188.63305664 38.13745117 C-187.6438623 37.71778076 -186.65466797 37.29811035 -185.63549805 36.86572266 C-184.10143311 36.20817993 -184.10143311 36.20817993 -182.53637695 35.53735352 C-161.20613454 26.56342763 -140.24361416 21.55782006 -117.07202148 21.50048828 C-114.73082905 21.49085771 -112.39054524 21.45979093 -110.04956055 21.42822266 C-100.65556436 21.36444237 -91.86355234 22.21574307 -82.65698242 24.09326172 C-79.12922214 24.86338061 -79.12922214 24.86338061 -75.19799805 24.74072266 C-75.91987305 24.25861328 -76.64174805 23.77650391 -77.38549805 23.27978516 C-78.31362305 22.64814453 -79.24174805 22.01650391 -80.19799805 21.36572266 C-81.12612305 20.73923828 -82.05424805 20.11275391 -83.01049805 19.46728516 C-83.73237305 18.89751953 -84.45424805 18.32775391 -85.19799805 17.74072266 C-85.19799805 17.08072266 -85.19799805 16.42072266 -85.19799805 15.74072266 C-68.4909847 15.26553777 -53.16307798 15.46109626 -38.06762695 23.4909668 C-34.83560514 25.26116978 -34.83560514 25.26116978 -31.25439453 25.56054688 C-28.58394293 24.49591712 -27.17523067 23.02430444 -25.1862793 20.95166016 C-24.42766602 20.17435547 -23.66905273 19.39705078 -22.88745117 18.59619141 C-22.10305664 17.77763672 -21.31866211 16.95908203 -20.51049805 16.11572266 C-4.49818403 -0.53060885 -4.49818403 -0.53060885 0 0 Z " fill="#B4560D" transform="translate(1034.197998046875,226.25927734375)"/>
<path d="M0 0 C2.09002651 0.73095406 4.19061522 1.40334455 6.30517578 2.05957031 C13.58968501 4.34229819 20.42454909 7.04051239 27.11376953 10.73925781 C25.78835504 13.66409075 24.32622651 15.73825112 22.11376953 18.05175781 C18.66207748 21.90144371 15.78001526 26.00369966 12.92626953 30.30175781 C12.30268555 31.23918823 12.30268555 31.23918823 11.66650391 32.19555664 C9.65351381 35.26295095 7.77571889 38.33859767 6.03955078 41.57128906 C3.58218692 45.61372738 3.58218692 45.61372738 0.48876953 46.86425781 C-0.56117188 47.32832031 -0.56117188 47.32832031 -1.63232422 47.80175781 C-2.74800781 48.26582031 -2.74800781 48.26582031 -3.88623047 48.73925781 C-24.20308131 57.63005066 -40.21189986 74.63027984 -48.76123047 95.05175781 C-50.60925546 99.84347478 -52.29345887 104.69073939 -53.94873047 109.55175781 C-54.19413574 110.26178955 -54.43954102 110.97182129 -54.69238281 111.70336914 C-56.52645323 117.18899637 -57.8499552 122.73135655 -59.1159668 128.37280273 C-65.16157188 154.79525866 -72.24395458 183.12035808 -90.88623047 203.73925781 C-91.51658203 204.48691406 -92.14693359 205.23457031 -92.79638672 206.00488281 C-95.61178384 209.32836646 -98.23285699 212.31110105 -101.88623047 214.73925781 C-102.54623047 214.73925781 -103.20623047 214.73925781 -103.88623047 214.73925781 C-103.88623047 215.39925781 -103.88623047 216.05925781 -103.88623047 216.73925781 C-104.54623047 216.73925781 -105.20623047 216.73925781 -105.88623047 216.73925781 C-105.49435547 215.48113281 -105.10248047 214.22300781 -104.69873047 212.92675781 C-104.09354997 210.86455506 -103.48955409 208.80200458 -102.88623047 206.73925781 C-102.5969165 205.80509033 -102.5969165 205.80509033 -102.30175781 204.85205078 C-96.84572292 187.12314683 -94.43473837 168.28739809 -94.88623047 149.73925781 C-95.17119385 150.9969397 -95.17119385 150.9969397 -95.46191406 152.2800293 C-102.00630729 180.75882061 -109.92327403 211.45415634 -129.88623047 233.73925781 C-130.64548828 234.6403125 -131.40474609 235.54136719 -132.18701172 236.46972656 C-138.0765615 243.27981203 -144.43199261 248.7017838 -151.88623047 253.73925781 C-152.97484375 254.47789062 -152.97484375 254.47789062 -154.08544922 255.23144531 C-169.3995781 264.62411103 -191.26611638 268.22981041 -208.89013672 265.22753906 C-209.54884766 265.06640625 -210.20755859 264.90527344 -210.88623047 264.73925781 C-210.88623047 264.07925781 -210.88623047 263.41925781 -210.88623047 262.73925781 C-209.85884766 262.25457031 -208.83146484 261.76988281 -207.77294922 261.27050781 C-197.30542073 256.24310631 -187.02348035 251.21739469 -179.88623047 241.73925781 C-180.67384766 242.06539062 -181.46146484 242.39152344 -182.27294922 242.72753906 C-203.42874649 251.21489442 -227.39887423 253.83986633 -248.95947266 244.87744141 C-261.30834317 239.45330299 -274.68673509 231.5972502 -281.88623047 219.73925781 C-281.88623047 218.74925781 -281.88623047 217.75925781 -281.88623047 216.73925781 C-281.23775146 216.76020508 -280.58927246 216.78115234 -279.92114258 216.80273438 C-266.90915784 217.16677042 -255.23994667 217.27341358 -242.88623047 212.73925781 C-241.84595703 212.37703125 -240.80568359 212.01480469 -239.73388672 211.64160156 C-217.93129366 203.36391179 -203.51575755 186.18795499 -191.88623047 166.73925781 C-192.30130859 167.15175781 -192.71638672 167.56425781 -193.14404297 167.98925781 C-206.42891445 180.44035075 -223.01100356 187.54985699 -241.19018555 187.33129883 C-253.01835512 186.83966868 -262.11702635 182.7392335 -270.88623047 174.73925781 C-271.55783203 174.13597656 -272.22943359 173.53269531 -272.92138672 172.91113281 C-276.22095333 169.79449905 -278.6588206 167.23976067 -279.88623047 162.73925781 C-274.13623047 162.61425781 -274.13623047 162.61425781 -271.88623047 163.73925781 C-253.23095928 164.61024224 -236.59174607 161.32996241 -222.26123047 148.36425781 C-221.47748047 147.49800781 -220.69373047 146.63175781 -219.88623047 145.73925781 C-219.37833984 145.24683594 -218.87044922 144.75441406 -218.34716797 144.24707031 C-205.75020868 131.30498885 -200.07555725 112.13841324 -195.02905273 95.26342773 C-184.80461529 61.11738729 -168.01522517 29.95835108 -136.88623047 10.73925781 C-136.32436035 10.38637695 -135.76249023 10.03349609 -135.18359375 9.66992188 C-126.81314502 4.45167316 -118.30600259 0.73205399 -108.88623047 -2.26074219 C-107.85111328 -2.61910156 -106.81599609 -2.97746094 -105.74951172 -3.34667969 C-72.93719738 -14.29784106 -32.43785798 -11.48126568 0 0 Z " fill="#441E05" transform="translate(327.88623046875,518.2607421875)"/>
<path d="M0 0 C1.0549682 3.2003695 0.94676379 4.99530624 -0.1796875 8.15234375 C-0.44910156 8.92900391 -0.71851563 9.70566406 -0.99609375 10.50585938 C-1.28613281 11.30830078 -1.57617188 12.11074219 -1.875 12.9375 C-8.17833682 30.76817195 -8.27619001 51.40467659 -0.625 69 C1.33355171 72.94084345 3.53647588 76.68739435 5.984375 80.34375 C7 82 7 82 8 85 C8.99 85.33 9.98 85.66 11 86 C9.88625 87.051875 9.88625 87.051875 8.75 88.125 C3.66433126 93.4418355 1.07866921 98.79849326 -1.125 105.6875 C-1.38506836 106.48115967 -1.64513672 107.27481934 -1.91308594 108.0925293 C-3.5630723 113.25740698 -4.84989164 118.35455607 -5.578125 123.73828125 C-6 126 -6 126 -6.98828125 128.390625 C-8.16572249 131.42742325 -8.54519054 134.20561726 -8.9375 137.4375 C-9.58586847 142.33855303 -10.40962063 147.1157219 -11.5 151.9375 C-12.96308639 158.5360196 -13.88730739 165.12611135 -14.72314453 171.82910156 C-16.07443257 182.42491568 -17.54278824 193.00932655 -19.5625 203.5 C-23.3772633 222.1490231 -23.3772633 222.1490231 -19.109375 240.19921875 C-17.37403511 244.58034093 -16.18515093 249.0958313 -14.94140625 253.63671875 C-14.16712439 256.40292905 -13.29656033 259.09412858 -12.375 261.8125 C-10.221052 269.0394075 -9.56928381 276.51160567 -9 284 C-8.94118652 284.72832031 -8.88237305 285.45664062 -8.82177734 286.20703125 C-7.62557668 303.31080207 -11.18384407 321.2896296 -18.33691406 336.85913086 C-19.11952447 339.38590209 -18.96022283 340.55819951 -18 343 C-14.20761373 347.49575428 -9.68158866 350.28660964 -4.6875 353.25 C-3.89496826 353.72671143 -3.10243652 354.20342285 -2.28588867 354.69458008 C5.38897646 359.28573258 13.15361162 363.70931178 21 368 C21.67256836 368.36786621 22.34513672 368.73573242 23.03808594 369.11474609 C25.04320867 370.20718897 27.05178561 371.29288743 29.0625 372.375 C29.65764404 372.69686279 30.25278809 373.01872559 30.8659668 373.3503418 C34.8274841 375.46207124 38.86779967 377.25140743 43 379 C45.35707973 380.11888374 47.71115949 381.244105 50.0625 382.375 C55.06664531 384.75220374 60.06757079 386.81561394 65.3125 388.625 C79.13519013 393.44506068 91.1591662 400.45713193 98 414 C99.54095014 417.78471324 100.94087316 421.60493727 102.32421875 425.44921875 C112.57811573 453.70151717 127.20789774 481.49693598 144.75439453 505.90820312 C151.02271385 514.86838862 153.04469349 524.95977803 155.06640625 535.52148438 C156.33550257 541.80393138 158.17042294 547.2566449 161 553 C162.37347057 555.98356659 163.70037266 558.98352178 165 562 C165.38027344 562.86238281 165.76054688 563.72476563 166.15234375 564.61328125 C172.14561285 579.06988881 179.73451255 599.05991402 175.21875 614.70703125 C173.76496691 617.44219368 172.91559267 618.04903608 170 619 C154.61013901 621.24326787 139.2247735 613.50867274 127.1875 604.625 C120.74293167 599.35757607 113.63647409 593.09179275 112.5625 584.5 C112.72058455 577.46523764 116.45216876 570.77542154 119.8125 564.75 C121.4151553 561.03858772 121.68192465 557.9792309 121 554 C118.50665592 548.55997654 114.12677382 545.52285427 109.4375 542.02734375 C104.96271495 538.30552734 102.339191 534.66580806 101 529 C100.88221367 527.1883341 100.77985834 525.37564006 100.6875 523.5625 C98.85332821 499.77649445 82.30112941 472.20650583 67.0859375 454.5 C65 452 65 452 65 450 C64.01 449.690625 64.01 449.690625 63 449.375 C57.34840036 446.7846835 52.84227078 443.01623394 48.75 438.375 C40.48672508 430.0204921 25.42957027 429.38607811 14.3125 427.4375 C12.68019335 427.14468845 11.04803085 426.85107216 9.41601562 426.55664062 C3.15802757 425.43137031 -3.10379901 424.32849912 -9.3684082 423.24072266 C-18.79696287 421.59958116 -28.19346234 419.82999646 -37.5769043 417.94775391 C-39.82857372 417.49678069 -42.08123333 417.05100365 -44.33398438 416.60546875 C-80.66768952 409.37113507 -80.66768952 409.37113507 -86 402 C-87.54550767 399.31569721 -89.01231114 396.60563789 -90.4375 393.85546875 C-92.35624019 390.34897106 -94.60898944 387.17341014 -96.99609375 383.97265625 C-98 382 -98 382 -97.71533203 380.1027832 C-96.94355623 377.83407842 -95.98358607 376.30422557 -94.55859375 374.3828125 C-93.81258911 373.35982056 -93.81258911 373.35982056 -93.05151367 372.31616211 C-92.2525769 371.23153687 -92.2525769 371.23153687 -91.4375 370.125 C-77.64027629 350.93730917 -65.92664096 329.12830498 -65 305 C-64.92523437 303.86949219 -64.85046875 302.73898437 -64.7734375 301.57421875 C-64.46110088 293.39593088 -65.36121589 286.03243652 -67.25 278.0625 C-67.45447754 277.19906982 -67.65895508 276.33563965 -67.86962891 275.44604492 C-69.34480218 269.65518142 -71.43218391 264.38687458 -74 259 C-74.43441406 258.02933594 -74.86882812 257.05867188 -75.31640625 256.05859375 C-81.53710293 242.97368005 -90.03605613 231.46297277 -100 221 C-100.9807318 219.92317731 -101.95842951 218.84358597 -102.93359375 217.76171875 C-103.43246094 217.20967773 -103.93132813 216.65763672 -104.4453125 216.08886719 C-105.42160979 215.008423 -106.3969112 213.92707789 -107.37109375 212.84472656 C-109.88121114 210.04101972 -109.88121114 210.04101972 -113 208 C-113 207.34 -113 206.68 -113 206 C-113.56203125 205.75636719 -114.1240625 205.51273438 -114.703125 205.26171875 C-117.44019785 203.75819064 -119.45795941 201.93300252 -121.75 199.8125 C-122.6265625 199.01070312 -123.503125 198.20890625 -124.40625 197.3828125 C-125.2621875 196.59648438 -126.118125 195.81015625 -127 195 C-132.4903654 190.01113009 -132.4903654 190.01113009 -138.5 185.6875 C-139.325 185.130625 -140.15 184.57375 -141 184 C-141 183.34 -141 182.68 -141 182 C-134.91231574 183.40798045 -130.09229004 185.99475145 -124.75 189.1875 C-123.90808105 189.68507813 -123.06616211 190.18265625 -122.19873047 190.6953125 C-120.53518198 191.68235341 -118.8741175 192.67359537 -117.21582031 193.66943359 C-115.40798364 194.75501203 -113.59187477 195.82680477 -111.7734375 196.89453125 C-101.26498356 203.26470023 -92.11993749 211.50559497 -83.70703125 220.41796875 C-82.14341599 222.22658088 -82.14341599 222.22658088 -80 222 C-75.40681744 214.12408177 -72.28666731 206.49619988 -70.1875 197.625 C-69.89613159 196.40744019 -69.89613159 196.40744019 -69.59887695 195.1652832 C-66.67713282 182.01935934 -65.7601306 168.60959741 -64.85357666 155.20941162 C-62.89478737 126.93906456 -58.67633941 98.75684136 -49 72 C-48.67128906 71.04738281 -48.34257813 70.09476562 -48.00390625 69.11328125 C-46.03697872 63.50332842 -43.76457433 58.25596938 -41 53 C-40.39501253 51.75039706 -39.79086871 50.50038537 -39.1875 49.25 C-31.24209996 33.45194778 -16.65664936 8.32832468 0 0 Z " fill="#8A3D03" transform="translate(966,333)"/>
<path d="M0 0 C3.32221529 0.31408479 6.16272585 1.11229893 9.20703125 2.5078125 C12.4874622 3.98639123 15.46454384 4.97044784 19.01953125 5.5703125 C19.01953125 6.2303125 19.01953125 6.8903125 19.01953125 7.5703125 C20.75203125 8.034375 20.75203125 8.034375 22.51953125 8.5078125 C29.56482881 10.82637624 35.80550292 14.82648977 42.18359375 18.53979492 C43.84861149 19.47437469 45.56328736 20.31908043 47.28125 21.15234375 C49.85043155 22.48274732 51.57465008 23.76826918 53.64453125 25.7578125 C58.67421616 30.33025333 64.319239 33.89679083 70.01953125 37.5703125 C71.00953125 38.2303125 71.99953125 38.8903125 73.01953125 39.5703125 C72.02953125 39.5703125 71.03953125 39.5703125 70.01953125 39.5703125 C69.91640625 40.6634375 69.81328125 41.7565625 69.70703125 42.8828125 C68.64058755 51.18062098 66.17946458 58.80497957 62.5703125 66.33203125 C61.39787497 68.78026982 60.27978901 71.23124671 59.1875 73.71484375 C51.86689321 90.09822517 42.21772689 104.9693683 31.65234375 119.43554688 C28.25944852 124.12605601 25.13654291 128.96611384 22.08203125 133.8828125 C21.39040894 134.97674316 21.39040894 134.97674316 20.68481445 136.09277344 C16.35305057 143.17192064 12.62505265 151.07667014 14.01953125 159.5703125 C18.89274989 177.43878084 36.01469818 189.6165075 50.19580078 200.19238281 C52.96972604 202.28823745 55.69538883 204.44457969 58.4284668 206.59326172 C65.33111381 212.01449847 72.31661572 217.27864858 79.45703125 222.3828125 C81.65771972 223.9677985 83.85633151 225.55556537 86.05273438 227.14648438 C87.28593491 228.03923829 88.52128916 228.9290328 89.75976562 229.81445312 C98.44301363 236.08390771 102.98045419 242.98983159 107.4375 252.640625 C111.23223835 260.73736749 115.81071808 267.68735294 121.01953125 274.9453125 C127.35850254 283.81597629 132.34835105 292.31508125 136.01953125 302.5703125 C136.36113281 303.48296875 136.70273437 304.395625 137.0546875 305.3359375 C139.84208251 313.16657279 141.89072688 322.45384179 139.39453125 330.61328125 C138.12435576 332.70212454 137.23043761 333.49532457 135.01953125 334.5703125 C118.31539213 337.40644307 99.2905853 329.69434141 85.578125 320.51953125 C80.16829416 316.39814867 75.53446594 312.51948389 74.33203125 305.6328125 C74.92436746 300.18112557 76.5676045 294.47416601 79.01953125 289.5703125 C79.49623908 284.80323422 79.5237265 282.52468208 77.26953125 278.2578125 C74.59887027 275.39639002 71.91363114 274.94629857 68.14453125 274.1953125 C62.53480154 273.00599481 59.96384585 271.38591658 56.50390625 266.86328125 C55.01694243 264.56631346 53.70826354 262.2198059 52.39453125 259.8203125 C45.93970009 248.6695063 34.03848507 240.78059314 23.96630859 233.07128906 C21.86265904 231.44936312 19.77804214 229.80494339 17.6953125 228.15625 C2.84823348 216.43064196 -12.69750159 206.01769669 -28.58203125 195.75854492 C-52.83585816 180.02798365 -52.83585816 180.02798365 -56.98046875 170.5703125 C-58.29663441 162.59301014 -55.67219128 156.40637477 -52.29296875 149.3203125 C-51.36811239 147.28520642 -50.44621995 145.24875069 -49.52734375 143.2109375 C-49.08455078 142.23833984 -48.64175781 141.26574219 -48.18554688 140.26367188 C-40.02505472 122.02490577 -34.39143801 98.72737556 -40.98828125 79.0625 C-41.47941406 77.82886719 -41.47941406 77.82886719 -41.98046875 76.5703125 C-42.39039063 75.52101563 -42.8003125 74.47171875 -43.22265625 73.390625 C-45.43383704 67.82939525 -45.43383704 67.82939525 -48.1953125 62.53515625 C-49.35174819 59.64119033 -49.13357473 58.49547106 -47.98046875 55.5703125 C-45.83808563 52.99295131 -43.42128087 50.73714113 -40.98046875 48.4453125 C-34.8220212 42.47616595 -29.2274302 36.36795587 -23.98046875 29.5703125 C-23.18382812 28.57902344 -22.3871875 27.58773437 -21.56640625 26.56640625 C-17.8723356 21.92528539 -14.36334967 17.34364117 -11.40625 12.1875 C-10.97884521 11.45168701 -10.55144043 10.71587402 -10.11108398 9.95776367 C-9.290466 8.51996693 -8.49561032 7.06707491 -7.73071289 5.59887695 C-5.6396033 1.93436623 -4.3956491 0.12550144 0 0 Z " fill="#7E3602" transform="translate(493.98046875,684.4296875)"/>
<path d="M0 0 C19.94195425 -0.56719386 35.44382583 1.17134398 53 11 C53 14.91225923 51.66673772 16.10218661 49.3125 19.1875 C46.37233432 22.99499762 46.37233432 22.99499762 43.92895508 27.12060547 C41.07010992 32.62766337 41.07010992 32.62766337 38.08374023 33.66674805 C35.71287393 33.87685852 33.44055153 33.84868972 31.0625 33.75 C29.26030166 33.76161103 27.4581492 33.78548547 25.65625 33.8203125 C24.25826172 33.84593262 24.25826172 33.84593262 22.83203125 33.87207031 C-23.88623185 35.98244702 -67.23550385 65.70576954 -98 99 C-101.10885189 102.58563982 -104.05935678 106.27628047 -107 110 C-108.43708578 111.7086818 -109.874596 113.4170067 -111.3125 115.125 C-121.78234357 127.91944171 -130.80982212 141.9432271 -139.7590332 155.82055664 C-141.6493526 158.75012937 -143.54513662 161.67612874 -145.44335938 164.60058594 C-146.51415769 166.25112011 -147.58306223 167.90288393 -148.65039062 169.55566406 C-162.7913551 191.39739377 -175.29544516 209.46760326 -199.88671875 219.78125 C-203.14143084 221.15242282 -206.24723745 222.62480291 -209.33203125 224.34375 C-221.46049721 231.00085692 -233.26251799 232.07878829 -246.82421875 229.18359375 C-251.58570132 227.69013981 -255.8613822 225.81573818 -260 223 C-260 222.34 -260 221.68 -260 221 C-259.02160156 220.65388672 -259.02160156 220.65388672 -258.0234375 220.30078125 C-257.14945313 219.97464844 -256.27546875 219.64851562 -255.375 219.3125 C-254.51648438 218.99925781 -253.65796875 218.68601562 -252.7734375 218.36328125 C-245.89111094 214.98027848 -242.26573412 209.90846492 -238.125 203.6875 C-233.20548352 196.50214496 -228.33158455 189.88772303 -221 185 C-222.77503906 184.58041016 -222.77503906 184.58041016 -224.5859375 184.15234375 C-235.21814819 181.50525502 -244.5029516 178.50762232 -252 170 C-252 169.34 -252 168.68 -252 168 C-251.3915625 167.99742187 -250.783125 167.99484375 -250.15625 167.9921875 C-236.28922569 167.38040702 -224.60521582 161.57526467 -213.71972656 153.30322266 C-211.12167052 151.33439484 -208.48572466 149.41800581 -205.85375977 147.49487305 C-204.51533731 146.51470791 -203.17977396 145.53062403 -201.84741211 144.54223633 C-197.20912014 141.10456007 -197.20912014 141.10456007 -195 140 C-196.23234375 139.97421875 -197.4646875 139.9484375 -198.734375 139.921875 C-217.75191237 139.34109876 -217.75191237 139.34109876 -226 135 C-226.66 134.01 -227.32 133.02 -228 132 C-227.21689453 131.67128906 -227.21689453 131.67128906 -226.41796875 131.3359375 C-215.28112903 126.5379295 -205.81480655 120.51576814 -196.13598633 113.25878906 C-187.20977777 106.5940284 -178.01096614 100.89874792 -168 96 C-169.01368652 95.82609741 -169.01368652 95.82609741 -170.04785156 95.64868164 C-173.11550426 95.12151116 -176.18275385 94.59203055 -179.25 94.0625 C-180.31347656 93.88009766 -181.37695312 93.69769531 -182.47265625 93.50976562 C-183.49746094 93.33251953 -184.52226563 93.15527344 -185.578125 92.97265625 C-186.99206543 92.72914429 -186.99206543 92.72914429 -188.43457031 92.48071289 C-190.65219747 92.0651716 -192.81957165 91.57651243 -195 91 C-193.70875076 87.12625229 -192.33835996 86.72985822 -188.84765625 84.70703125 C-187.7692749 84.08022461 -186.69089355 83.45341797 -185.57983398 82.80761719 C-184.40794166 82.14160531 -183.23548513 81.47658533 -182.0625 80.8125 C-181.47542267 80.4767395 -180.88834534 80.140979 -180.28347778 79.79504395 C-149.12406 62 -149.12406 62 -138 62 C-138 61.34 -138 60.68 -138 60 C-139.134375 59.9175 -140.26875 59.835 -141.4375 59.75 C-146.4070696 59.15436286 -150.5546652 57.21237727 -155 55 C-155 54.34 -155 53.68 -155 53 C-154.42668945 52.8141333 -153.85337891 52.6282666 -153.26269531 52.43676758 C-138.77617638 47.72400979 -138.77617638 47.72400979 -124.6171875 42.12109375 C-116.27647463 38.54828092 -107.83492633 36.03527099 -99 34 C-104.29012667 32.42421759 -109.60204011 31.15058556 -115 30 C-112.28384698 27.04591587 -109.91647493 25.24002128 -106.24609375 23.6328125 C-105.31845215 23.22490479 -104.39081055 22.81699707 -103.43505859 22.39672852 C-102.44586426 21.97705811 -101.45666992 21.5573877 -100.4375 21.125 C-98.90343506 20.46745728 -98.90343506 20.46745728 -97.33837891 19.79663086 C-76.00813649 10.82270498 -55.04561611 5.8170974 -31.87402344 5.75976562 C-29.532831 5.75013505 -27.19254719 5.71906827 -24.8515625 5.6875 C-15.45756631 5.62371971 -6.6655543 6.47502042 2.54101562 8.35253906 C6.0687759 9.12265796 6.0687759 9.12265796 10 9 C9.278125 8.51789063 8.55625 8.03578125 7.8125 7.5390625 C6.884375 6.90742188 5.95625 6.27578125 5 5.625 C4.071875 4.99851563 3.14375 4.37203125 2.1875 3.7265625 C1.465625 3.15679687 0.74375 2.58703125 0 2 C0 1.34 0 0.68 0 0 Z " fill="#421E06" transform="translate(949,242)"/>
<path d="M0 0 C1.0549682 3.2003695 0.94676379 4.99530624 -0.1796875 8.15234375 C-0.44910156 8.92900391 -0.71851563 9.70566406 -0.99609375 10.50585938 C-1.28613281 11.30830078 -1.57617188 12.11074219 -1.875 12.9375 C-8.17833682 30.76817195 -8.27619001 51.40467659 -0.625 69 C1.33355171 72.94084345 3.53647588 76.68739435 5.984375 80.34375 C7 82 7 82 8 85 C8.99 85.33 9.98 85.66 11 86 C9.88625 87.051875 9.88625 87.051875 8.75 88.125 C3.66433126 93.4418355 1.07866921 98.79849326 -1.125 105.6875 C-1.38506836 106.48115967 -1.64513672 107.27481934 -1.91308594 108.0925293 C-3.5630723 113.25740698 -4.84989164 118.35455607 -5.578125 123.73828125 C-6 126 -6 126 -6.98828125 128.390625 C-8.16572249 131.42742325 -8.54519054 134.20561726 -8.9375 137.4375 C-9.58586847 142.33855303 -10.40962063 147.1157219 -11.5 151.9375 C-12.96308639 158.5360196 -13.88730739 165.12611135 -14.72314453 171.82910156 C-16.07443257 182.42491568 -17.54278824 193.00932655 -19.5625 203.5 C-23.3772633 222.1490231 -23.3772633 222.1490231 -19.109375 240.19921875 C-17.37403511 244.58034093 -16.18515093 249.0958313 -14.94140625 253.63671875 C-14.16712439 256.40292905 -13.29656033 259.09412858 -12.375 261.8125 C-10.221052 269.0394075 -9.56928381 276.51160567 -9 284 C-8.94118652 284.72832031 -8.88237305 285.45664062 -8.82177734 286.20703125 C-7.56197679 304.22017944 -11.83488807 322.51518375 -19 339 C-19.12375 338.360625 -19.2475 337.72125 -19.375 337.0625 C-19.58125 336.381875 -19.7875 335.70125 -20 335 C-20.66 334.67 -21.32 334.34 -22 334 C-22.38671875 335.06154297 -22.38671875 335.06154297 -22.78125 336.14453125 C-26.90128286 345.79755696 -35.00461622 357.81939315 -44.80078125 362.2734375 C-45.52652344 362.51320313 -46.25226563 362.75296875 -47 363 C-45.85460271 359.37290859 -44.53677387 355.87710652 -43.0625 352.375 C-39.05507118 342.32740288 -37.52417163 332.91773874 -37.6875 322.125 C-37.68266602 320.49304688 -37.68266602 320.49304688 -37.67773438 318.828125 C-37.71343373 313.5186578 -37.83566671 308.9495112 -40 304 C-40.15855469 305.30710937 -40.31710937 306.61421875 -40.48046875 307.9609375 C-43.51370953 331.73401811 -48.92699461 355.73746607 -68 372 C-74.27324589 376.09078892 -81.90827096 376.86722238 -89.19970703 377.87524414 C-93.40333398 378.4792679 -93.40333398 378.4792679 -97.00390625 380.58984375 C-97.33261719 381.05519531 -97.66132812 381.52054688 -98 382 C-97.39492418 378.91041396 -96.42837165 376.9039599 -94.55859375 374.3828125 C-93.81258911 373.35982056 -93.81258911 373.35982056 -93.05151367 372.31616211 C-92.2525769 371.23153687 -92.2525769 371.23153687 -91.4375 370.125 C-77.64027629 350.93730917 -65.92664096 329.12830498 -65 305 C-64.92523437 303.86949219 -64.85046875 302.73898437 -64.7734375 301.57421875 C-64.46110088 293.39593088 -65.36121589 286.03243652 -67.25 278.0625 C-67.45447754 277.19906982 -67.65895508 276.33563965 -67.86962891 275.44604492 C-69.34480218 269.65518142 -71.43218391 264.38687458 -74 259 C-74.43441406 258.02933594 -74.86882812 257.05867188 -75.31640625 256.05859375 C-81.53710293 242.97368005 -90.03605613 231.46297277 -100 221 C-100.9807318 219.92317731 -101.95842951 218.84358597 -102.93359375 217.76171875 C-103.43246094 217.20967773 -103.93132813 216.65763672 -104.4453125 216.08886719 C-105.42160979 215.008423 -106.3969112 213.92707789 -107.37109375 212.84472656 C-109.88121114 210.04101972 -109.88121114 210.04101972 -113 208 C-113 207.34 -113 206.68 -113 206 C-113.56203125 205.75636719 -114.1240625 205.51273438 -114.703125 205.26171875 C-117.44019785 203.75819064 -119.45795941 201.93300252 -121.75 199.8125 C-122.6265625 199.01070312 -123.503125 198.20890625 -124.40625 197.3828125 C-125.2621875 196.59648438 -126.118125 195.81015625 -127 195 C-132.4903654 190.01113009 -132.4903654 190.01113009 -138.5 185.6875 C-139.325 185.130625 -140.15 184.57375 -141 184 C-141 183.34 -141 182.68 -141 182 C-134.91231574 183.40798045 -130.09229004 185.99475145 -124.75 189.1875 C-123.90808105 189.68507813 -123.06616211 190.18265625 -122.19873047 190.6953125 C-120.53518198 191.68235341 -118.8741175 192.67359537 -117.21582031 193.66943359 C-115.40798364 194.75501203 -113.59187477 195.82680477 -111.7734375 196.89453125 C-101.26498356 203.26470023 -92.11993749 211.50559497 -83.70703125 220.41796875 C-82.14341599 222.22658088 -82.14341599 222.22658088 -80 222 C-75.40681744 214.12408177 -72.28666731 206.49619988 -70.1875 197.625 C-69.89613159 196.40744019 -69.89613159 196.40744019 -69.59887695 195.1652832 C-66.67713282 182.01935934 -65.7601306 168.60959741 -64.85357666 155.20941162 C-62.89478737 126.93906456 -58.67633941 98.75684136 -49 72 C-48.67128906 71.04738281 -48.34257813 70.09476562 -48.00390625 69.11328125 C-46.03697872 63.50332842 -43.76457433 58.25596938 -41 53 C-40.39501253 51.75039706 -39.79086871 50.50038537 -39.1875 49.25 C-31.24209996 33.45194778 -16.65664936 8.32832468 0 0 Z " fill="#9C4705" transform="translate(966,333)"/>
<path d="M0 0 C5.28 0.99 10.56 1.98 16 3 C16.33 2.01 16.66 1.02 17 0 C16.02280506 2.15747262 16.02280506 2.15747262 16 5 C17.62496675 7.49102046 19.19956545 9.5804233 21.125 11.8125 C22.1494018 13.06325136 23.17156455 14.31584013 24.19140625 15.5703125 C24.68141113 16.16618164 25.17141602 16.76205078 25.67626953 17.37597656 C29.56663508 22.14888538 31.98357998 25.92160654 32.875 32.0625 C36.55288015 56.36994427 57.55198022 80.03792133 71.2565918 99.51708984 C72.45119767 101.21841203 73.64261011 102.92197973 74.83129883 104.62744141 C78.00660282 109.18284864 81.21304671 113.69607281 84.5625 118.125 C85.31660156 119.1253125 86.07070312 120.125625 86.84765625 121.15625 C88.18825631 122.92749654 89.52931972 124.69839261 90.87109375 126.46875 C91.40863281 127.1803125 91.94617187 127.891875 92.5 128.625 C92.9640625 129.23601562 93.428125 129.84703125 93.90625 130.4765625 C97.41278604 135.36066627 96.82595814 141.28182823 96 147 C94.18438422 152.02659843 91.53224653 156.65288222 88.91503906 161.296875 C87.75118495 163.46310933 86.8432788 165.69207908 86 168 C81.97676072 164.51319262 80.23766883 161.26642292 79.84765625 155.90625 C79.75921053 150.48157895 79.75921053 150.48157895 81 148 C82.78499273 138.15925748 79.8317611 131.79938053 74.4296875 123.94140625 C73.89698242 123.17973145 73.36427734 122.41805664 72.81542969 121.63330078 C70.70268237 118.5687375 68.66272535 115.45951174 66.6328125 112.33984375 C66.24517731 111.74441772 65.85754211 111.1489917 65.4581604 110.53552246 C64.65347678 109.29935313 63.84888228 108.06312577 63.04437256 106.82684326 C60.98062435 103.6616386 58.90421457 100.50477419 56.828125 97.34765625 C38.90796369 70.08311195 38.90796369 70.08311195 30.5625 56.8125 C22.1594538 43.25189792 22.1594538 43.25189792 12.375 30.6875 C5.04882096 21.931514 1.71894954 11.17317203 0 0 Z " fill="#ECB582" transform="translate(1058,309)"/>
<path d="M0 0 C2.99007985 1.15595871 5.81618529 2.39698268 8.625 3.9375 C17.05461202 8.09009485 24.86166369 9.26814 34.1875 9.3125 C35.45255371 9.32071777 35.45255371 9.32071777 36.74316406 9.32910156 C42.13632577 9.26769532 46.81848126 8.50007059 52 7 C60.99345531 39.60526196 60.99345531 39.60526196 56 49 C51.54037045 52.15810676 46.20626674 51.50403808 41 51 C23.41976029 47.60196756 7.92688009 38.17612021 -3 24 C-5.3068441 20.04217924 -5.7426143 16.4989449 -5 12 C-3.55537812 7.89264301 -1.84057364 3.94408637 0 0 Z " fill="#342311" transform="translate(1084,901)"/>
<path d="M0 0 C1.75 0.94921875 1.75 0.94921875 2.75 3.94921875 C1.78306342 5.64969343 0.81145774 7.34780682 -0.19140625 9.02734375 C-5.12841527 17.99047453 -4.6001194 32.08718145 -2.02734375 41.77734375 C-0.40736967 46.30350248 1.63741572 50.6353539 3.75 54.94921875 C-1.37666026 58.68740853 -6.36335561 60.84191241 -12.375 62.69921875 C-13.055625 62.90957764 -13.73625 63.11993652 -14.4375 63.33666992 C-21.15601878 65.33408948 -28.2175752 66.95194092 -35.25 65.94921875 C-37.75160818 64.07301262 -38.86945652 62.71030572 -40.25 59.94921875 C-41.57056205 40.16243661 -37.58176969 20.30682969 -24.21728516 4.97387695 C-16.57049055 -3.35581619 -10.56536062 -3.46675895 0 0 Z " fill="#332211" transform="translate(770.25,916.05078125)"/>
<path d="M0 0 C1.69189453 0.433125 1.69189453 0.433125 3.41796875 0.875 C17.9836385 4.39430628 34.97954919 7.53410015 49.0390625 0.77734375 C51 0 51 0 54 1 C59.34954579 11.51968608 65.07207838 27.195898 61.3671875 39.01953125 C60.10904531 41.13459705 59.22461301 41.91834761 57 43 C40.29586088 45.83613057 21.27105405 38.12402891 7.55859375 28.94921875 C2.14876291 24.82783617 -2.48506531 20.94917139 -3.6875 14.0625 C-3.1708847 9.23750809 -1.57349546 4.57062967 0 0 Z " fill="#322110" transform="translate(572,976)"/>
<path d="M0 0 C0.01417969 0.71542969 0.02835938 1.43085937 0.04296875 2.16796875 C0.67329783 15.3367357 5.66673244 28.34986286 14.8984375 37.98046875 C17.59985516 40.37982916 19.53962723 41.84654241 23 43 C19.36632604 51.02583326 11.98173819 55.93304092 4.9375 60.8125 C4.26509277 61.28051025 3.59268555 61.74852051 2.89990234 62.23071289 C-2.13861348 65.6391931 -7.03590633 68.39508293 -13.0625 69.625 C-16.8945114 68.80967843 -18.34634213 67.42962829 -20.67578125 64.3359375 C-27.67269337 51.99330197 -26.83463136 31.77988431 -23.7578125 18.32421875 C-21.17773477 10.41109374 -18.15306328 4.78543961 -10.6875 0.75 C-7.02167213 -0.27302173 -3.80120622 -0.12885445 0 0 Z " fill="#342210" transform="translate(182,978)"/>
<path d="M0 0 C0.7425 0.0825 1.485 0.165 2.25 0.25 C3.03344456 15.39659488 0.46976088 30.23885356 -7.09375 43.62890625 C-8.07601516 46.38076238 -8.07601516 46.38076238 -6.3359375 49.265625 C-5.60632812 50.33296875 -4.87671875 51.4003125 -4.125 52.5 C5.11707832 66.530143 5.11707832 66.530143 4.25 73.25 C-6.65845025 74.29888945 -15.56114675 68.97867219 -23.75 62.25 C-24.74 61.59 -25.73 60.93 -26.75 60.25 C-26.894375 61.03375 -27.03875 61.8175 -27.1875 62.625 C-27.75 65.25 -27.75 65.25 -28.75 67.25 C-29.41 67.25 -30.07 67.25 -30.75 67.25 C-31.02972656 66.68152344 -31.30945312 66.11304688 -31.59765625 65.52734375 C-35.3332248 58.33247056 -40.01303069 52.83113913 -46.75 48.25 C-46.11762072 45.15064661 -45.05261537 42.83519359 -43.4375 40.125 C-40.70123939 35.34449817 -38.67535594 30.40220947 -36.75 25.25 C-34.44 25.58 -32.13 25.91 -29.75 26.25 C-29.42 25.26 -29.09 24.27 -28.75 23.25 C-27.39453125 21.84765625 -27.39453125 21.84765625 -25.5625 20.3125 C-24.85222656 19.70921875 -24.14195313 19.1059375 -23.41015625 18.484375 C-22.53230469 17.74703125 -21.65445312 17.0096875 -20.75 16.25 C-18.95669974 14.7255128 -17.16645956 13.19752023 -15.37768555 11.66772461 C-14.14537424 10.61422742 -12.91121883 9.56288275 -11.67504883 8.51391602 C-11.09650146 8.02076904 -10.5179541 7.52762207 -9.921875 7.01953125 C-9.36822266 6.54854004 -8.81457031 6.07754883 -8.24414062 5.59228516 C-6.58016516 4.14691334 -6.58016516 4.14691334 -4.640625 1.88671875 C-2.75 0.25 -2.75 0.25 0 0 Z " fill="#401D04" transform="translate(1069.75,238.75)"/>
<path d="M0 0 C0.7425 0.0825 1.485 0.165 2.25 0.25 C2.97813812 14.32733693 1.57964071 32.6987525 -8 43.875 C-8.86625 44.555625 -8.86625 44.555625 -9.75 45.25 C-10.05550781 44.7653125 -10.36101562 44.280625 -10.67578125 43.78125 C-15.85970613 36.18789524 -23.04978968 30.36508435 -31.75 27.25 C-31.09 26.92 -30.43 26.59 -29.75 26.25 C-29.42 25.26 -29.09 24.27 -28.75 23.25 C-27.39453125 21.84765625 -27.39453125 21.84765625 -25.5625 20.3125 C-24.85222656 19.70921875 -24.14195313 19.1059375 -23.41015625 18.484375 C-22.53230469 17.74703125 -21.65445312 17.0096875 -20.75 16.25 C-18.95669974 14.7255128 -17.16645956 13.19752023 -15.37768555 11.66772461 C-14.14537424 10.61422742 -12.91121883 9.56288275 -11.67504883 8.51391602 C-11.09650146 8.02076904 -10.5179541 7.52762207 -9.921875 7.01953125 C-9.36822266 6.54854004 -8.81457031 6.07754883 -8.24414062 5.59228516 C-6.58016516 4.14691334 -6.58016516 4.14691334 -4.640625 1.88671875 C-2.75 0.25 -2.75 0.25 0 0 Z " fill="#843A04" transform="translate(1069.75,238.75)"/>
<path d="M0 0 C0.66 0.33 1.32 0.66 2 1 C1.67 1.99 1.34 2.98 1 4 C0.65742039 6.6456358 0.34816914 9.28580802 0.0625 11.9375 C-0.11695442 13.48194998 -0.29795132 15.0262215 -0.48046875 16.5703125 C-0.78738896 19.16835059 -1.08265131 21.76607988 -1.36328125 24.3671875 C-3.06854219 37.35473039 -9.07260373 46.57910154 -19.1171875 54.71484375 C-21 56 -21 56 -23 56 C-22.28497668 34.7995587 -15.14461108 15.14461108 0 0 Z " fill="#773100" transform="translate(1031,235)"/>
<path d="M0 0 C4.68213343 3.84975415 6.13936015 7.57850356 7 13.5 C7.15855469 14.54542969 7.31710937 15.59085937 7.48046875 16.66796875 C7.8125 19.3125 7.8125 19.3125 7.8125 21.3125 C5.14238491 21.70807261 2.49635516 22.03934511 -0.1875 22.3125 C-1.01636719 22.40402344 -1.84523438 22.49554688 -2.69921875 22.58984375 C-7.53666848 22.89357337 -10.43832961 22.65556319 -14.25 19.5 C-16.50149464 17.35445805 -17.17532342 16.34902974 -18.1875 13.3125 C-18.22704234 10.97950175 -18.23151732 8.64541811 -18.1875 6.3125 C-19.8375 5.9825 -21.4875 5.6525 -23.1875 5.3125 C-23.1875 4.6525 -23.1875 3.9925 -23.1875 3.3125 C-20.98317015 2.46700362 -18.77501467 1.63607186 -16.5625 0.8125 C-14.71785156 0.11640625 -14.71785156 0.11640625 -12.8359375 -0.59375 C-7.79546025 -2.10481384 -4.6900222 -2.48295293 0 0 Z " fill="#1B0B02" transform="translate(1055.1875,344.6875)"/>
<path d="M0 0 C2 1.375 2 1.375 3 3 C3 3.66 3 4.32 3 5 C1.68 5 0.36 5 -1 5 C0.90884692 9.54170996 0.90884692 9.54170996 3 14 C3.52895407 17.87899653 3.1816683 20.28094852 0.9375 23.4375 C-2 26 -2 26 -5.5 26.25 C-8.86050042 25.04982128 -10.98861952 23.99695506 -13.109375 21.0703125 C-15.07701575 16.49641076 -14.89481708 11.82171216 -14 7 C-10.96273865 0.40638173 -6.93900733 -1.13754219 0 0 Z " fill="#2D1200" transform="translate(1131,444)"/>
<path d="M0 0 C0.7425 0.0825 1.485 0.165 2.25 0.25 C1.85460073 3.80859342 0.29941955 5.27145059 -2.234375 7.65234375 C-5.5374324 11.13417488 -8.05648551 15.29264962 -10.75 19.25 C-12.01840344 21.06420129 -13.28915871 22.87676104 -14.5625 24.6875 C-16.31973827 27.19267035 -18.05243949 29.70365923 -19.75 32.25 C-23.78520597 30.66037341 -27.76811282 28.96767682 -31.75 27.25 C-31.09 26.92 -30.43 26.59 -29.75 26.25 C-29.42 25.26 -29.09 24.27 -28.75 23.25 C-27.39453125 21.84765625 -27.39453125 21.84765625 -25.5625 20.3125 C-24.85222656 19.70921875 -24.14195313 19.1059375 -23.41015625 18.484375 C-22.53230469 17.74703125 -21.65445312 17.0096875 -20.75 16.25 C-18.95669974 14.7255128 -17.16645956 13.19752023 -15.37768555 11.66772461 C-14.14537424 10.61422742 -12.91121883 9.56288275 -11.67504883 8.51391602 C-9.17214838 6.38047309 -6.77850959 4.27974699 -4.5 1.90234375 C-2.75 0.25 -2.75 0.25 0 0 Z " fill="#9C4A0A" transform="translate(1069.75,238.75)"/>
<path d="M0 0 C0.66 0 1.32 0 2 0 C2.85291368 21.51237835 -1.20314924 40.39266146 -12 59 C-12.495 57.515 -12.495 57.515 -13 56 C-13.763125 56.495 -14.52625 56.99 -15.3125 57.5 C-18 59 -18 59 -21 59 C-20.56429687 58.63390625 -20.12859375 58.2678125 -19.6796875 57.890625 C-6.8920864 46.26553309 -5.15431503 29.4426456 -4.30859375 13.06640625 C-4 11 -4 11 -2 8 C-1.67 8 -1.34 8 -1 8 C-0.67 5.36 -0.34 2.72 0 0 Z " fill="#A44E0A" transform="translate(1035,228)"/>
<path d="M0 0 C0.99 0.33 1.98 0.66 3 1 C2.67 1.66 2.34 2.32 2 3 C0.10839844 3.5625 0.10839844 3.5625 -2.390625 4 C-3.33035156 4.165 -4.27007813 4.33 -5.23828125 4.5 C-6.72908203 4.7475 -6.72908203 4.7475 -8.25 5 C-9.16652344 5.165 -10.08304688 5.33 -11.02734375 5.5 C-27.90647212 8.38455064 -44.78888298 9.31892771 -61.88867188 9.20581055 C-64.79045203 9.18724113 -67.6919158 9.18530408 -70.59375 9.18554688 C-72.47396106 9.18063977 -74.35417 9.17481501 -76.234375 9.16796875 C-77.08449158 9.16685593 -77.93460815 9.1657431 -78.81048584 9.16459656 C-84.27448428 9.12169001 -89.57774123 8.6823769 -95 8 C-95 7.67 -95 7.34 -95 7 C-94.0613208 7.01047363 -93.1226416 7.02094727 -92.15551758 7.03173828 C-71.33050486 7.24290467 -50.75771688 6.87611206 -30 5 C-28.59282715 4.87407471 -28.59282715 4.87407471 -27.15722656 4.74560547 C-23.03938927 4.35780325 -19.0474559 3.86925227 -15 3 C-11.33081842 2.47816084 -7.65822351 1.98781391 -3.984375 1.5 C-1.12415168 1.31766742 -1.12415168 1.31766742 0 0 Z " fill="#89390F" transform="translate(777,741)"/>
<path d="M0 0 C2.61932856 0.07703908 4.42098911 0.49575151 6.421875 2.23828125 C10.23831173 6.53690219 13.18098476 11.35292581 16.20703125 16.22265625 C20.28140634 22.53394315 25.15357435 28.27240604 30 34 C27.33203125 34.3828125 27.33203125 34.3828125 24 34 C21.88980395 31.97297956 20.3663891 30.21817336 18.6875 27.875 C18.21820068 27.25133545 17.74890137 26.6276709 17.26538086 25.98510742 C13.57829275 21.00981215 10.18242487 15.84006272 6.99291992 10.53271484 C4.98750281 7.2512977 3.05961798 5.26562316 0 3 C0 2.01 0 1.02 0 0 Z " fill="#622501" transform="translate(1084,461)"/>
<path d="M0 0 C-0.5746621 4.78642607 -1.98245643 8.53788787 -4.0625 12.875 C-4.61035156 14.02742188 -5.15820312 15.17984375 -5.72265625 16.3671875 C-6.35494141 17.67042969 -6.35494141 17.67042969 -7 19 C-11.25355958 15.16142184 -11.9014954 12.49252298 -13 7 C-12.34 7 -11.68 7 -11 7 C-11 6.34 -11 5.68 -11 5 C-10.2575 4.731875 -9.515 4.46375 -8.75 4.1875 C-5.69369987 2.86773403 -3.29552413 0 0 0 Z " fill="#D28547" transform="translate(1151,458)"/>
<path d="M0 0 C0.66 0.33 1.32 0.66 2 1 C-2.05489233 5.27083334 -5.96318503 8.92877136 -11 12 C-11.33 11.01 -11.66 10.02 -12 9 C-15.51190809 7.77030122 -15.51190809 7.77030122 -19 7 C-19 6.67 -19 6.34 -19 6 C-18.21496094 5.81824219 -17.42992187 5.63648438 -16.62109375 5.44921875 C-9.59884323 3.80336621 -9.59884323 3.80336621 -2.875 1.25 C-1.92625 0.8375 -0.9775 0.425 0 0 Z M-17 8 C-15 9 -15 9 -15 9 Z " fill="#E3E0DF" transform="translate(148,759)"/>
<path d="M0 0 C2.87402727 2.5958956 4.24432948 4.21369298 5 8 C3.8803014 9.00593243 2.7540588 10.0045849 1.625 11 C0.99851563 11.556875 0.37203125 12.11375 -0.2734375 12.6875 C-2 14 -2 14 -4 14 C-4 14.66 -4 15.32 -4 16 C-4.66 16 -5.32 16 -6 16 C-4.43551329 10.3856009 -2.83604813 5.13189662 0 0 Z " fill="#38231B" transform="translate(228,719)"/>
<path d="M0 0 C0.66 0.33 1.32 0.66 2 1 C1.67 2.32 1.34 3.64 1 5 C3.97 5.495 3.97 5.495 7 6 C7 6.33 7 6.66 7 7 C9.97 7.495 9.97 7.495 13 8 C13 8.33 13 8.66 13 9 C5.83585679 9.55108794 -0.46257244 8.00721668 -7 5 C-7.66 4.01 -8.32 3.02 -9 2 C-5.54337669 -0.30441554 -4.05142119 -0.25860135 0 0 Z " fill="#371704" transform="translate(730,372)"/>
<path d="M0 0 C6.6 0 13.2 0 20 0 C17.69 4.62 15.38 9.24 13 14 C12.67 14 12.34 14 12 14 C11.97287934 12.56260487 11.95354933 11.12506137 11.9375 9.6875 C11.92589844 8.88699219 11.91429687 8.08648437 11.90234375 7.26171875 C12 5 12 5 13 2 C8.71 1.67 4.42 1.34 0 1 C0 0.67 0 0.34 0 0 Z " fill="#9A4603" transform="translate(969,275)"/>
<path d="M0 0 C6.82586363 -0.22220512 12.90194007 0.55353944 19.5625 2 C20.93245117 2.28617188 20.93245117 2.28617188 22.33007812 2.578125 C24.55520087 3.04411929 26.77826276 3.51816975 29 4 C29 4.66 29 5.32 29 6 C31.64 6 34.28 6 37 6 C37.495 6.99 37.495 6.99 38 8 C29.61285113 7.44322254 21.56841382 5.7559147 13.375 3.9375 C12.07172706 3.65248001 10.76834219 3.36797132 9.46484375 3.08398438 C6.30876282 2.39432225 3.15390034 1.69955412 0 1 C0 0.67 0 0.34 0 0 Z " fill="#8A4725" transform="translate(905,745)"/>
<path d="M0 0 C-1.50663783 3.01327566 -4.03166411 3.61056618 -7 5 C-7 6.32 -7 7.64 -7 9 C-9.31 9 -11.62 9 -14 9 C-14 9.66 -14 10.32 -14 11 C-16.97 10.505 -16.97 10.505 -20 10 C-16.86458323 6.45628571 -13.73402362 4.68563522 -9.4375 2.75 C-7.73400391 1.96882813 -7.73400391 1.96882813 -5.99609375 1.171875 C-3 0 -3 0 0 0 Z " fill="#4B2E20" transform="translate(854,262)"/>
<path d="M0 0 C0.66 0.33 1.32 0.66 2 1 C-0.9342132 5.74316988 -4.25265492 9.50197427 -8.25 13.375 C-8.80429688 13.92027344 -9.35859375 14.46554687 -9.9296875 15.02734375 C-11.28188731 16.35622977 -12.6403035 17.67878548 -14 19 C-14.66 18.01 -15.32 17.02 -16 16 C-10.72 10.72 -5.44 5.44 0 0 Z " fill="#502916" transform="translate(178,538)"/>
<path d="M0 0 C0 3 0 3 -1.8359375 5.17651367 C-2.67382812 5.99869385 -3.51171875 6.82087402 -4.375 7.66796875 C-5.27734375 8.56064453 -6.1796875 9.45332031 -7.109375 10.37304688 C-8.0727573 11.31136157 -9.03630108 12.2495105 -10 13.1875 C-10.96422346 14.13667769 -11.92777392 15.08653956 -12.890625 16.03710938 C-15.25386746 18.36490319 -17.62381482 20.68543133 -20 23 C-20.66 22.34 -21.32 21.68 -22 21 C-18.8999204 17.87092268 -15.79425076 14.74745275 -12.6875 11.625 C-11.80642578 10.73554688 -10.92535156 9.84609375 -10.01757812 8.9296875 C-9.17001953 8.07890625 -8.32246094 7.228125 -7.44921875 6.3515625 C-6.66893311 5.56604004 -5.88864746 4.78051758 -5.0847168 3.97119141 C-3 2 -3 2 0 0 Z " fill="#B65D19" transform="translate(1026,231)"/>
<path d="M0 0 C0.33 0 0.66 0 1 0 C1.70250488 4.05891711 2.11682137 7.05565952 1 11 C0.66510466 12.65933924 0.34175595 14.32103302 0.02734375 15.984375 C-0.14990234 16.91894531 -0.32714844 17.85351562 -0.50976562 18.81640625 C-0.69216797 19.78449219 -0.87457031 20.75257813 -1.0625 21.75 C-1.24876953 22.73355469 -1.43503906 23.71710937 -1.62695312 24.73046875 C-2.08567317 27.15345156 -2.54331771 29.57663243 -3 32 C-3.66 32 -4.32 32 -5 32 C-4.39969169 24.69808624 -3.29701918 17.57132416 -1.9375 10.375 C-1.75123047 9.37082031 -1.56496094 8.36664062 -1.37304688 7.33203125 C-0.91902767 4.88731245 -0.46129456 2.44335452 0 0 Z " fill="#AB591F" transform="translate(246,815)"/>
<path d="M0 0 C0.33 0 0.66 0 1 0 C1.94167455 4.78370669 2.19182555 9.45112253 2.1875 14.3125 C2.18814453 15.06072021 2.18878906 15.80894043 2.18945312 16.57983398 C2.13791671 21.97300301 1.51266676 26.80020801 0 32 C-0.66 31.67 -1.32 31.34 -2 31 C-1.84660156 29.9275 -1.69320313 28.855 -1.53515625 27.75 C-0.83925021 22.18275169 -0.6513766 16.60286558 -0.4375 11 C-0.39431641 9.93910156 -0.35113281 8.87820313 -0.30664062 7.78515625 C-0.20144004 5.19020849 -0.09929881 2.59517916 0 0 Z " fill="#7E3813" transform="translate(456,770)"/>
<path d="M0 0 C0.33 0 0.66 0 1 0 C1.10466648 8.07094823 1.03387512 15.9874678 0 24 C-0.33 24 -0.66 24 -1 24 C-1.33 22.02 -1.66 20.04 -2 18 C-2.66 18.66 -3.32 19.32 -4 20 C-3.21085905 13.21338787 -1.58725189 6.63850633 0 0 Z " fill="#D6D1D0" transform="translate(233,664)"/>
<path d="M0 0 C0.556875 0.226875 1.11375 0.45375 1.6875 0.6875 C0.3675 1.6775 -0.9525 2.6675 -2.3125 3.6875 C-0.9925 4.0175 0.3275 4.3475 1.6875 4.6875 C1.6875 5.3475 1.6875 6.0075 1.6875 6.6875 C4.6575 7.0175 7.6275 7.3475 10.6875 7.6875 C6.27852673 8.78974332 3.2447715 8.20671909 -1.0625 7.25 C-1.75988281 7.10240234 -2.45726562 6.95480469 -3.17578125 6.80273438 C-4.8897021 6.43881967 -6.60134581 6.06420932 -8.3125 5.6875 C-7.3125 2.6875 -7.3125 2.6875 -5 0.9375 C-2.3125 -0.3125 -2.3125 -0.3125 0 0 Z " fill="#4E342C" transform="translate(762.3125,327.3125)"/>
<path d="M0 0 C6.84411827 -0.31267545 12.6539364 -0.21361906 19.0859375 2.265625 C21.35106061 3.13469264 23.60820635 3.61422683 26 4 C26 4.66 26 5.32 26 6 C26.99 6.33 27.98 6.66 29 7 C23.59821791 6.49983499 18.83879409 5.40365707 13.67578125 3.765625 C9.18726366 2.48131924 4.60420439 1.74402542 0 1 C0 0.67 0 0.34 0 0 Z " fill="#9B552E" transform="translate(600,736)"/>
<path d="M0 0 C0.33 0 0.66 0 1 0 C1.45059618 5.29450514 0.11096216 8.30581622 -2.5 12.875 C-2.83386719 13.46796875 -3.16773438 14.0609375 -3.51171875 14.671875 C-4.32979982 16.12104717 -5.16334743 17.56146981 -6 19 C-6.66 19 -7.32 19 -8 19 C-6.00386732 12.2813095 -3.2708579 6.19265192 0 0 Z " fill="#58301E" transform="translate(149,573)"/>
<path d="M0 0 C0.99 0.33 1.98 0.66 3 1 C2.34 2.98 1.68 4.96 1 7 C-2.71888239 6.49287967 -5.73454239 5.88391785 -9 4 C-9 3.34 -9 2.68 -9 2 C-6.94921875 1.77213542 -4.8984375 1.54427083 -2.84765625 1.31640625 C-0.98859771 1.18113386 -0.98859771 1.18113386 0 0 Z " fill="#3D1A08" transform="translate(803,293)"/>
<path d="M0 0 C3.35414799 -0.02929977 6.70826253 -0.0468989 10.0625 -0.0625 C11.00544922 -0.07087891 11.94839844 -0.07925781 12.91992188 -0.08789062 C18.0630768 -0.10581103 22.93258427 0.10740389 28 1 C28 1.33 28 1.66 28 2 C11.1070615 2.18451025 11.1070615 2.18451025 4 1 C4 1.66 4 2.32 4 3 C4.66 3.33 5.32 3.66 6 4 C3 4 3 4 0 2 C0 1.34 0 0.68 0 0 Z " fill="#412115" transform="translate(949,242)"/>
<path d="M0 0 C1 3 1 3 1 6 C2.97956942 7.69088222 4.97945196 9.35830472 7 11 C7 11.66 7 12.32 7 13 C7.66 13 8.32 13 9 13 C10.32 15.64 11.64 18.28 13 21 C12.34 21 11.68 21 11 21 C10.2575 19.7934375 10.2575 19.7934375 9.5 18.5625 C6.33851037 13.49195701 1.48881954 9.85490227 -3 6 C-2.42655063 3.13275314 -2.1385485 2.1385485 0 0 Z " fill="#391501" transform="translate(1026,281)"/>
<path d="M0 0 C-0.33 0.66 -0.66 1.32 -1 2 C-2.875 2.5625 -2.875 2.5625 -5 3 C-5.99 3.33 -6.98 3.66 -8 4 C-10.39870613 3.91343435 -12.79537281 3.76001509 -15.1875 3.5625 C-16.45980469 3.46066406 -17.73210938 3.35882812 -19.04296875 3.25390625 C-20.01878906 3.17011719 -20.99460938 3.08632813 -22 3 C-21.67 2.34 -21.34 1.68 -21 1 C-18.0859375 0.5859375 -18.0859375 0.5859375 -14.375 0.375 C-13.16585937 0.30023437 -11.95671875 0.22546875 -10.7109375 0.1484375 C-7.13574706 0.00542988 -3.57758654 -0.02759064 0 0 Z " fill="#5B301C" transform="translate(80,682)"/>
<path d="M0 0 C1.71056541 2.58430745 2.05220752 3.68321539 1.5390625 6.796875 C1.23742187 7.77140625 0.93578125 8.7459375 0.625 9.75 C0.32851562 10.73484375 0.03203125 11.7196875 -0.2734375 12.734375 C-0.51320312 13.48203125 -0.75296875 14.2296875 -1 15 C-1.66 15 -2.32 15 -3 15 C-3 15.99 -3 16.98 -3 18 C-3.66 18 -4.32 18 -5 18 C-3.36959185 11.98922864 -1.72852643 5.98336072 0 0 Z " fill="#542C19" transform="translate(133,613)"/>
<path d="M0 0 C0.33 0 0.66 0 1 0 C1 5.61 1 11.22 1 17 C0.01 16.67 -0.98 16.34 -2 16 C-2.05384521 13.70858714 -2.09272087 11.41681812 -2.125 9.125 C-2.14820313 7.84882812 -2.17140625 6.57265625 -2.1953125 5.2578125 C-2 2 -2 2 0 0 Z " fill="#EAE4DD" transform="translate(197,953)"/>
<path d="M0 0 C1.58409994 0.11487748 3.16728963 0.24234508 4.75 0.375 C6.07257812 0.47941406 6.07257812 0.47941406 7.421875 0.5859375 C9.99066382 0.99850055 11.75841015 1.71160957 14 3 C12.41913952 3.36504603 10.83516093 3.71660506 9.25 4.0625 C8.36828125 4.25972656 7.4865625 4.45695312 6.578125 4.66015625 C4.01320972 4.99825872 2.42908361 4.81158635 0 4 C0 2.68 0 1.36 0 0 Z " fill="#E1DCDA" transform="translate(839,273)"/>
<path d="M0 0 C0.33 0 0.66 0 1 0 C1.36478928 2.70727912 1.71709438 5.41523717 2.0625 8.125 C2.16626953 8.88554688 2.27003906 9.64609375 2.37695312 10.4296875 C2.93099161 14.86199541 3.00817782 18.58657821 2 23 C1.67 23 1.34 23 1 23 C0.13190561 17.79826905 -0.12515348 12.83021184 -0.0625 7.5625 C-0.05798828 6.83095703 -0.05347656 6.09941406 -0.04882812 5.34570312 C-0.03718148 3.56376581 -0.01925191 1.78187137 0 0 Z " fill="#A45008" transform="translate(766,935)"/>
<path d="M0 0 C0 1.32 0 2.64 0 4 C4.95 4 9.9 4 15 4 C15 4.33 15 4.66 15 5 C12.27076612 5.0270817 9.54180363 5.04687847 6.8125 5.0625 C6.04357422 5.07087891 5.27464844 5.07925781 4.48242188 5.08789062 C0.51473211 5.10491934 -3.12571234 4.98604115 -7 4 C-7 3.34 -7 2.68 -7 2 C-2.25 0 -2.25 0 0 0 Z " fill="#65514C" transform="translate(124,779)"/>
<path d="M0 0 C0 3.63195496 -0.95453155 4.74713911 -3 7.6875 C-3.556875 8.49574219 -4.11375 9.30398438 -4.6875 10.13671875 C-5.120625 10.75160156 -5.55375 11.36648438 -6 12 C-8.475 11.01 -8.475 11.01 -11 10 C-7.50640535 6.40365256 -3.88901869 3.16548033 0 0 Z " fill="#E3DBDA" transform="translate(136,684)"/>
<path d="M0 0 C2 2 2 2 3 4.5625 C3.74870114 7.14841441 3.74870114 7.14841441 6 8 C6 8.66 6 9.32 6 10 C8.64 10.33 11.28 10.66 14 11 C14 11.66 14 12.32 14 13 C12.375 13.75 12.375 13.75 10 14 C5.73221322 11.68828216 2.60593282 9.10935559 0 5 C-0.25 2.1875 -0.25 2.1875 0 0 Z " fill="#954716" transform="translate(1079,482)"/>
<path d="M0 0 C4.62 0 9.24 0 14 0 C10.54602565 3.45397435 9.30872286 4.56375905 5 6 C5 5.01 5 4.02 5 3 C2.525 2.01 2.525 2.01 0 1 C0 0.67 0 0.34 0 0 Z " fill="#D3CBCA" transform="translate(741,381)"/>
<path d="M0 0 C-2.58556706 2.58556706 -4.5637749 3.25845081 -8.125 3.375 C-10.043125 3.189375 -10.043125 3.189375 -12 3 C-12.66 2.01 -13.32 1.02 -14 0 C-9.20699867 -1.39151652 -4.84864218 -0.68662689 0 0 Z " fill="#EFECEB" transform="translate(944,753)"/>
<path d="M0 0 C0.33 0 0.66 0 1 0 C0.47458553 7.7498635 -1.55591476 14.6450086 -4 22 C-4.66 21.34 -5.32 20.68 -6 20 C-5.7578125 17.8359375 -5.7578125 17.8359375 -5.125 15.375 C-4.81949219 14.14910156 -4.81949219 14.14910156 -4.5078125 12.8984375 C-4.34023438 12.27195312 -4.17265625 11.64546875 -4 11 C-3.34 11 -2.68 11 -2 11 C-1.34 7.37 -0.68 3.74 0 0 Z " fill="#2F1911" transform="translate(262,663)"/>
<path d="M0 0 C4.95 0 9.9 0 15 0 C15 0.66 15 1.32 15 2 C11.535 3.485 11.535 3.485 8 5 C7.67 4.01 7.34 3.02 7 2 C4.69 1.67 2.38 1.34 0 1 C0 0.67 0 0.34 0 0 Z " fill="#DCD2CB" transform="translate(709,472)"/>
<path d="M0 0 C3.61773603 1.43315025 4.969107 3.04587964 6.8125 6.4375 C7.25207031 7.21996094 7.69164062 8.00242187 8.14453125 8.80859375 C9 11 9 11 8 14 C5 10.375 5 10.375 5 7 C4.34 7 3.68 7 3 7 C0 2.61538462 0 2.61538462 0 0 Z " fill="#A2521C" transform="translate(1084,799)"/>
<path d="M0 0 C5.94 0 11.88 0 18 0 C18 0.66 18 1.32 18 2 C19.98 2 21.96 2 24 2 C24 2.33 24 2.66 24 3 C21.3122562 2.85790331 18.62486698 2.7114277 15.9375 2.5625 C15.18533203 2.52318359 14.43316406 2.48386719 13.65820312 2.44335938 C9.05301259 2.18419281 4.55633276 1.7200579 0 1 C0 0.67 0 0.34 0 0 Z " fill="#A86E4E" transform="translate(640,745)"/>
<path d="M0 0 C1.4370809 -0.05422947 2.87475462 -0.09289723 4.3125 -0.125 C5.11300781 -0.14820313 5.91351562 -0.17140625 6.73828125 -0.1953125 C9 0 9 0 12 2 C13.9896995 2.39013716 15.99019869 2.73202649 18 3 C18 3.33 18 3.66 18 4 C11.42684522 4.36517527 6.20514474 3.13619737 0 1 C0 0.67 0 0.34 0 0 Z " fill="#523C34" transform="translate(725,377)"/>
<path d="M0 0 C0 3.77910478 -0.99703962 4.46106101 -3.5 7.1875 C-4.1496875 7.90292969 -4.799375 8.61835937 -5.46875 9.35546875 C-5.9740625 9.89816406 -6.479375 10.44085937 -7 11 C-8.32 10.67 -9.64 10.34 -11 10 C-10.45730469 9.52949219 -9.91460937 9.05898438 -9.35546875 8.57421875 C-8.64003906 7.95160156 -7.92460937 7.32898438 -7.1875 6.6875 C-6.47980469 6.07261719 -5.77210938 5.45773437 -5.04296875 4.82421875 C-3.29863261 3.26665665 -1.63221959 1.67341125 0 0 Z " fill="#B36024" transform="translate(289,776)"/>
<path d="M0 0 C1.98 0.495 1.98 0.495 4 1 C4.33 2.32 4.66 3.64 5 5 C3.35 5.33 1.7 5.66 0 6 C-1.125 2.25 -1.125 2.25 0 0 Z " fill="#D2D1D2" transform="translate(1051,348)"/>
<path d="M0 0 C-0.34069235 3.15140423 -0.58076841 4.60781561 -2.9375 6.8125 C-5 8 -5 8 -7 8 C-4.18918919 0 -4.18918919 0 0 0 Z " fill="#392A1F" transform="translate(169,981)"/>
<path d="M0 0 C0.33 0 0.66 0 1 0 C1.69570687 4.01963971 2.21946279 7.09771909 1 11 C0.6503582 13.33094534 0.31445513 15.66404762 0 18 C-2.32867177 14.50699235 -2.14192599 13.59758378 -1.6875 9.5625 C-1.58824219 8.61503906 -1.48898438 7.66757812 -1.38671875 6.69140625 C-1.05710402 4.39742089 -0.61704715 2.23086277 0 0 Z " fill="#B3662F" transform="translate(246,815)"/>
<path d="M0 0 C0.99 0 1.98 0 3 0 C3 0.66 3 1.32 3 2 C3.99 1.9071875 3.99 1.9071875 5 1.8125 C9.09084054 2.06817753 12.20666984 3.45695044 16 5 C11.78320746 6.29818286 9.18826409 5.37201755 5 4 C3.865625 3.62875 2.73125 3.2575 1.5625 2.875 C0.2940625 2.441875 0.2940625 2.441875 -1 2 C-0.67 1.34 -0.34 0.68 0 0 Z " fill="#853508" transform="translate(592,731)"/>
<path d="M0 0 C0.66 0.33 1.32 0.66 2 1 C-5.11389522 9.81548975 -5.11389522 9.81548975 -10 11 C-6.79239749 7.19364503 -3.59253891 3.45436433 0 0 Z " fill="#E6E2E1" transform="translate(303,579)"/>
<path d="M0 0 C-2.42581871 2.42581871 -4.07433869 2.96355664 -7.48046875 3.09765625 C-8.37378906 3.08605469 -9.26710938 3.07445312 -10.1875 3.0625 C-11.53908203 3.04896484 -11.53908203 3.04896484 -12.91796875 3.03515625 C-13.60503906 3.02355469 -14.29210938 3.01195312 -15 3 C-11.07677056 -0.92322944 -5.25785342 -0.10515707 0 0 Z " fill="#8D400F" transform="translate(1114,495)"/>
<path d="M0 0 C0.66 0.33 1.32 0.66 2 1 C-0.78999451 4.48749314 -3.25235831 7.50157221 -7 10 C-7.66 9.34 -8.32 8.68 -9 8 C-7.87811441 6.85111717 -6.75238316 5.70598863 -5.625 4.5625 C-4.99851562 3.92441406 -4.37203125 3.28632813 -3.7265625 2.62890625 C-2 1 -2 1 0 0 Z " fill="#47291C" transform="translate(727,428)"/>
<path d="M0 0 C2.13444066 2.74785763 3.97962441 5.53140548 5.6875 8.5625 C6.12449219 9.32691406 6.56148437 10.09132813 7.01171875 10.87890625 C8 13 8 13 8 16 C0 5.86163522 0 5.86163522 0 0 Z " fill="#F2BE8B" transform="translate(1063,324)"/>
<path d="M0 0 C0.66 0.33 1.32 0.66 2 1 C-0.31 3.31 -2.62 5.62 -5 8 C-5.66 7.34 -6.32 6.68 -7 6 C-7 5.01 -7 4.02 -7 3 C-4.69631264 1.93347808 -2.35981813 0.93578995 0 0 Z " fill="#DCD6D5" transform="translate(148,759)"/>
<path d="M0 0 C1.58367747 0.14204741 3.16693318 0.28880153 4.75 0.4375 C5.63171875 0.51871094 6.5134375 0.59992187 7.421875 0.68359375 C9.69350452 0.96238465 11.79851823 1.38790577 14 2 C14 2.66 14 3.32 14 4 C12.4156683 3.91231752 10.83246433 3.80412671 9.25 3.6875 C7.92742188 3.60048828 7.92742188 3.60048828 6.578125 3.51171875 C3.67696226 2.9358819 2.20774393 1.92403852 0 0 Z " fill="#8B421D" transform="translate(985,759)"/>
<path d="M0 0 C1.65 0 3.3 0 5 0 C5 0.66 5 1.32 5 2 C6.423125 1.9690625 6.423125 1.9690625 7.875 1.9375 C11 2 11 2 13 3 C13 3.66 13 4.32 13 5 C8.02693484 4.50269348 4.36200187 3.44697666 0 1 C0 0.67 0 0.34 0 0 Z " fill="#8C3D10" transform="translate(568,724)"/>
<path d="M0 0 C0.66 0.99 1.32 1.98 2 3 C0.68 5.31 -0.64 7.62 -2 10 C-2.99 10 -3.98 10 -5 10 C-3.66511872 6.40608886 -2.03977277 3.24509304 0 0 Z " fill="#572F1E" transform="translate(156,562)"/>
<path d="M0 0 C4.95 0.99 4.95 0.99 10 2 C10 2.33 10 2.66 10 3 C9.05125 3.309375 8.1025 3.61875 7.125 3.9375 C4.13919592 4.87394742 4.13919592 4.87394742 2 6 C1.34 4.02 0.68 2.04 0 0 Z " fill="#EFE4DF" transform="translate(884,740)"/>
<path d="M0 0 C2.74277578 3.19990508 4.6302836 6.00499382 6 10 C5.01 10 4.02 10 3 10 C2.30289269 8.71349294 1.61757124 7.42059335 0.9375 6.125 C0.36322266 5.04605469 0.36322266 5.04605469 -0.22265625 3.9453125 C-0.47917969 3.30335938 -0.73570313 2.66140625 -1 2 C-0.67 1.34 -0.34 0.68 0 0 Z " fill="#A4521D" transform="translate(1093,812)"/>
<path d="M0 0 C0.99 0.33 1.98 0.66 3 1 C2.67 1.66 2.34 2.32 2 3 C-2.80603519 4.55033393 -8.00819059 4.0872355 -13 4 C-13 3.67 -13 3.34 -13 3 C-12.14535156 2.86722656 -11.29070313 2.73445312 -10.41015625 2.59765625 C-9.30542969 2.42105469 -8.20070313 2.24445312 -7.0625 2.0625 C-5.96035156 1.88847656 -4.85820313 1.71445312 -3.72265625 1.53515625 C-1.09573071 1.28154864 -1.09573071 1.28154864 0 0 Z " fill="#813407" transform="translate(777,741)"/>
<path d="M0 0 C0.81210938 0.47566406 0.81210938 0.47566406 1.640625 0.9609375 C4.4157149 2.18307974 6.73208098 2.40943436 9.75 2.625 C11.22726563 2.73714844 11.22726563 2.73714844 12.734375 2.8515625 C13.48203125 2.90054688 14.2296875 2.94953125 15 3 C15 3.33 15 3.66 15 4 C10.05 4 5.1 4 0 4 C0 2.68 0 1.36 0 0 Z " fill="#2C1006" transform="translate(124,779)"/>
<path d="M0 0 C0.66 0 1.32 0 2 0 C1.57476184 1.60746056 1.13429874 3.21089836 0.6875 4.8125 C0.44386719 5.70582031 0.20023438 6.59914063 -0.05078125 7.51953125 C-1.0200819 10.05247738 -1.95009604 11.2716496 -4 13 C-3.40895235 8.15340923 -2.02055843 4.39251833 0 0 Z " fill="#ECDED6" transform="translate(950,662)"/>
<path d="M0 0 C0.33 0.66 0.66 1.32 1 2 C1.66 2.33 2.32 2.66 3 3 C2.34 5.31 1.68 7.62 1 10 C0.01 10 -0.98 10 -2 10 C-1.34 6.7 -0.68 3.4 0 0 Z " fill="#582F1B" transform="translate(136,603)"/>
<path d="M0 0 C0.99 0.33 1.98 0.66 3 1 C2.25 3.875 2.25 3.875 1 7 C-0.98 7.99 -0.98 7.99 -3 9 C-2.01 6.03 -1.02 3.06 0 0 Z " fill="#4A3C32" transform="translate(738,933)"/>
<path d="M0 0 C4.455 0.99 4.455 0.99 9 2 C6 4 6 4 2.8125 3.625 C1.884375 3.41875 0.95625 3.2125 0 3 C0 2.01 0 1.02 0 0 Z " fill="#613D2E" transform="translate(336,522)"/>
<path d="M0 0 C6.875 0.875 6.875 0.875 8 2 C10.32817964 2.36760731 12.6618385 2.70241581 15 3 C15 3.33 15 3.66 15 4 C9.84204369 4.17786056 5.81970715 4.11596899 1 2 C0.67 1.34 0.34 0.68 0 0 Z " fill="#AA683F" transform="translate(1091,495)"/>
<path d="M0 0 C0.99 0.33 1.98 0.66 3 1 C3 2.98 3 4.96 3 7 C0.35261084 8.4606285 -0.89448334 9 -4 9 C-3.525625 8.443125 -3.05125 7.88625 -2.5625 7.3125 C-0.87604004 4.81653926 -0.41046893 2.9553763 0 0 Z " fill="#9F500C" transform="translate(1134,459)"/>
<path d="M0 0 C0.33 0.99 0.66 1.98 1 3 C3.00016466 4.20882096 3.00016466 4.20882096 5 5 C3.68 5.33 2.36 5.66 1 6 C1 6.66 1 7.32 1 8 C0.34 8 -0.32 8 -1 8 C-1.125 2.25 -1.125 2.25 0 0 Z " fill="#E79F63" transform="translate(1139,457)"/>
<path d="M0 0 C0.66 0.33 1.32 0.66 2 1 C0.515 7.435 0.515 7.435 -1 14 C-1.33 14 -1.66 14 -2 14 C-2.1799928 8.78020872 -1.97094808 4.92737019 0 0 Z " fill="#8D4D26" transform="translate(962,439)"/>
<path d="M0 0 C2.4375 0.1875 2.4375 0.1875 5 1 C6.3125 3.0625 6.3125 3.0625 7 5 C6.34 5.66 5.68 6.32 5 7 C4.34 6.01 3.68 5.02 3 4 C1.69481525 2.96352976 0.36538653 1.95577057 -1 1 C-0.67 0.67 -0.34 0.34 0 0 Z " fill="#231108" transform="translate(1053,346)"/>
<path d="M0 0 C1.875 1.3125 1.875 1.3125 2.625 3.4375 C2.7075 4.05625 2.79 4.675 2.875 5.3125 C-2.875 3.4375 -2.875 3.4375 -5.125 2.3125 C-5.125 1.6525 -5.125 0.9925 -5.125 0.3125 C-2.125 -0.6875 -2.125 -0.6875 0 0 Z " fill="#604339" transform="translate(799.125,294.6875)"/>
<path d="M0 0 C0.66 0.66 1.32 1.32 2 2 C-5.625 3.25 -5.625 3.25 -9 1 C-5.60805912 -0.60174986 -3.55768883 -1.4721471 0 0 Z " fill="#4D3F32" transform="translate(178,979)"/>
<path d="M0 0 C0.804375 0.4640625 0.804375 0.4640625 1.625 0.9375 C4.3984957 2.17827439 7.00042837 2.5909675 10 3 C10 3.66 10 4.32 10 5 C7.03 4.67 4.06 4.34 1 4 C0.67 2.68 0.34 1.36 0 0 Z " fill="#F1E4D8" transform="translate(778,918)"/>
<path d="M0 0 C0.33 0 0.66 0 1 0 C3.6635514 9.05607477 3.6635514 9.05607477 4 12 C3.34 12.66 2.68 13.32 2 14 C0.02905192 9.07262981 -0.1799928 5.21979128 0 0 Z " fill="#9D6342" transform="translate(1067,854)"/>
<path d="M0 0 C0.66 0 1.32 0 2 0 C1.34 1.32 0.68 2.64 0 4 C-0.66 4 -1.32 4 -2 4 C-2.66 5.98 -3.32 7.96 -4 10 C-4.66 10 -5.32 10 -6 10 C-4.63312778 6.01328937 -2.84804907 3.11505367 0 0 Z " fill="#B25C21" transform="translate(254,801)"/>
<path d="M0 0 C-0.33 0.99 -0.66 1.98 -1 3 C-1.99 3.33 -2.98 3.66 -4 4 C-4 3.34 -4 2.68 -4 2 C-6.47266765 2.34444881 -6.47266765 2.34444881 -9 3 C-9.33 3.66 -9.66 4.32 -10 5 C-10.66 4.34 -11.32 3.68 -12 3 C-10.56445975 2.49440092 -9.1264798 1.9957251 -7.6875 1.5 C-6.88699219 1.2215625 -6.08648437 0.943125 -5.26171875 0.65625 C-3 0 -3 0 0 0 Z " fill="#613D2D" transform="translate(222,516)"/>
<path d="M0 0 C5.97646444 5.82322176 5.97646444 5.82322176 6.0625 10.125 C6.041875 11.07375 6.02125 12.0225 6 13 C4.43926745 10.65890118 3.13626133 8.43666597 1.875 5.9375 C1.34519531 4.89916016 1.34519531 4.89916016 0.8046875 3.83984375 C0 2 0 2 0 0 Z " fill="#A84E0E" transform="translate(1133,435)"/>
<path d="M0 0 C0 0.66 0 1.32 0 2 C-6.96428571 5.34821429 -6.96428571 5.34821429 -11 4 C-9.73308493 3.32591692 -8.46129251 2.66099503 -7.1875 2 C-6.47980469 1.62875 -5.77210938 1.2575 -5.04296875 0.875 C-3 0 -3 0 0 0 Z " fill="#5D4035" transform="translate(792,311)"/>
<path d="M0 0 C1.36511719 0.43119141 1.36511719 0.43119141 2.7578125 0.87109375 C3.45648437 1.09925781 4.15515625 1.32742188 4.875 1.5625 C4.875 2.2225 4.875 2.8825 4.875 3.5625 C3.2483152 3.28038123 1.62367104 2.98647625 0 2.6875 C-1.35738281 2.44386719 -1.35738281 2.44386719 -2.7421875 2.1953125 C-5.125 1.5625 -5.125 1.5625 -7.125 -0.4375 C-4.30685434 -1.84657283 -2.95222796 -0.94622691 0 0 Z " fill="#833F1D" transform="translate(892.125,739.4375)"/>
<path d="M0 0 C0 0.99 0 1.98 0 3 C-3.4352048 5.29013653 -4.985331 5.17842973 -9 5 C-2.40909091 0 -2.40909091 0 0 0 Z " fill="#573323" transform="translate(741,365)"/>
<path d="M0 0 C0.99 0.33 1.98 0.66 3 1 C3 2.65 3 4.3 3 6 C0.36 6 -2.28 6 -5 6 C-3.625 4.5 -3.625 4.5 -2 3 C-1.34 3 -0.68 3 0 3 C0 2.01 0 1.02 0 0 Z " fill="#58321A" transform="translate(1071,306)"/>
<path d="M0 0 C0.66 0.33 1.32 0.66 2 1 C0.375 7.75 0.375 7.75 -3 10 C-2.01 6.7 -1.02 3.4 0 0 Z " fill="#D7D2D1" transform="translate(257,685)"/>
<path d="M0 0 C0.99 0 1.98 0 3 0 C2.67 1.32 2.34 2.64 2 4 C1.34 4 0.68 4 0 4 C-0.33 5.32 -0.66 6.64 -1 8 C-1.66 8 -2.32 8 -3 8 C-1.125 2.25 -1.125 2.25 0 0 Z " fill="#603828" transform="translate(124,639)"/>
<path d="M0 0 C4.99275057 1.27721526 7.57611908 3.17330957 11 7 C6.89188572 5.55007731 3.53144334 3.54592427 0 1 C0 0.67 0 0.34 0 0 Z " fill="#9E4914" transform="translate(1039,449)"/>
<path d="M0 0 C0.763125 0.20625 1.52625 0.4125 2.3125 0.625 C0.92054085 3.4089183 -0.84325779 3.60398997 -3.6875 4.625 C-4.3475 3.635 -5.0075 2.645 -5.6875 1.625 C-2.6875 -0.375 -2.6875 -0.375 0 0 Z " fill="#513326" transform="translate(726.6875,372.375)"/>
<path d="M0 0 C-2.52788007 2.79872437 -4.20411134 4.45773019 -8 5 C-8 4.34 -8 3.68 -8 3 C-8.66 2.67 -9.32 2.34 -10 2 C-8.71211992 1.46987262 -7.41953322 0.9511671 -6.125 0.4375 C-5.40570312 0.14746094 -4.68640625 -0.14257812 -3.9453125 -0.44140625 C-2 -1 -2 -1 0 0 Z " fill="#5D3C2D" transform="translate(821,287)"/>
<path d="M0 0 C0.99 0 1.98 0 3 0 C2.55123384 1.64846769 2.09069512 3.29373455 1.625 4.9375 C1.36976563 5.85402344 1.11453125 6.77054688 0.8515625 7.71484375 C0 10 0 10 -2 11 C-1.34 7.37 -0.68 3.74 0 0 Z " fill="#AB4E11" transform="translate(250,943)"/>
<path d="M0 0 C1.175625 1.2065625 1.175625 1.2065625 2.375 2.4375 C4.71982856 4.98690417 4.71982856 4.98690417 7 6 C7 6.66 7 7.32 7 8 C4.0280615 6.87548273 1.66559313 5.77706209 -1 4 C-0.67 2.68 -0.34 1.36 0 0 Z " fill="#8B4B17" transform="translate(1086,897)"/>
<path d="M0 0 C2.18975773 3.28463659 2.99806563 6.20696275 4 10 C3.34 10 2.68 10 2 10 C2 9.01 2 8.02 2 7 C1.34 7 0.68 7 0 7 C-0.93423645 3.98968256 -1.04449911 3.13349732 0 0 Z " fill="#A7582A" transform="translate(1069,763)"/>
<path d="M0 0 C0.99 0.33 1.98 0.66 3 1 C3 3.31 3 5.62 3 8 C2.01 8 1.02 8 0 8 C0 5.36 0 2.72 0 0 Z " fill="#BC5F19" transform="translate(323,691)"/>
<path d="M0 0 C0.66 0 1.32 0 2 0 C1.39009109 3.55780196 0.4216319 6.6828589 -1 10 C-1.68707555 7.50935112 -2 5.62113708 -2 3 C-1.34 3 -0.68 3 0 3 C0 2.01 0 1.02 0 0 Z " fill="#924B1C" transform="translate(948,662)"/>
<path d="M0 0 C0.99 0.66 1.98 1.32 3 2 C0.69 3.32 -1.62 4.64 -4 6 C-4 5.01 -4 4.02 -4 3 C-2 1.3125 -2 1.3125 0 0 Z " fill="#552E1B" transform="translate(185,533)"/>
<path d="M0 0 C4.75 0.875 4.75 0.875 7 2 C6.67 2.99 6.34 3.98 6 5 C3.5625 4.1875 3.5625 4.1875 1 3 C0.67 2.01 0.34 1.02 0 0 Z " fill="#522814" transform="translate(348,527)"/>
<path d="M0 0 C0.33 0.99 0.66 1.98 1 3 C-1.3125 4.5625 -1.3125 4.5625 -4 6 C-4.99 5.67 -5.98 5.34 -7 5 C-4.69 3.35 -2.38 1.7 0 0 Z " fill="#512F20" transform="translate(759,351)"/>
<path d="M0 0 C2.64 0 5.28 0 8 0 C6.68 0.33 5.36 0.66 4 1 C4 1.66 4 2.32 4 3 C4.66 3.33 5.32 3.66 6 4 C3 4 3 4 0 2 C0 1.34 0 0.68 0 0 Z " fill="#533930" transform="translate(949,242)"/>
<path d="M0 0 C0.33 1.65 0.66 3.3 1 5 C-0.9375 4.6875 -0.9375 4.6875 -3 4 C-3.33 3.01 -3.66 2.02 -4 1 C-2 0 -2 0 0 0 Z " fill="#321A0F" transform="translate(60,746)"/>
<path d="M0 0 C1.17539996 0.92652701 2.34010577 1.86663387 3.5 2.8125 C4.1496875 3.33457031 4.799375 3.85664062 5.46875 4.39453125 C7 6 7 6 7 9 C3.99234114 6.15063897 1.72154788 3.76488042 0 0 Z " fill="#A0480E" transform="translate(1050,731)"/>
<path d="M0 0 C0.66 0 1.32 0 2 0 C1.34 2.64 0.68 5.28 0 8 C-0.66 7.34 -1.32 6.68 -2 6 C-1.44444444 1.44444444 -1.44444444 1.44444444 0 0 Z " fill="#E7E5E3" transform="translate(225,720)"/>
<path d="M0 0 C0.99 0.66 1.98 1.32 3 2 C2.34 3.65 1.68 5.3 1 7 C0.34 7 -0.32 7 -1 7 C-1.33 7.99 -1.66 8.98 -2 10 C-1.46274105 6.62294375 -0.88935377 3.303314 0 0 Z " fill="#BD6D32" transform="translate(323,581)"/>
<path d="M0 0 C5.57142857 5.14285714 5.57142857 5.14285714 6 9 C0.42857143 3.85714286 0.42857143 3.85714286 0 0 Z " fill="#F2C08E" transform="translate(1078,347)"/>
<path d="M0 0 C0 0.66 0 1.32 0 2 C-0.99 2 -1.98 2 -3 2 C-3 2.66 -3 3.32 -3 4 C-3.66 4 -4.32 4 -5 4 C-5 4.66 -5 5.32 -5 6 C-6.32 5.34 -7.64 4.68 -9 4 C-2.25 0 -2.25 0 0 0 Z " fill="#58372A" transform="translate(781,316)"/>
<path d="M0 0 C2.97 0.495 2.97 0.495 6 1 C5.1875 2.9375 5.1875 2.9375 4 5 C3.01 5.33 2.02 5.66 1 6 C0.67 4.02 0.34 2.04 0 0 Z " fill="#DFA56B" transform="translate(1058,309)"/>
<path d="M0 0 C0 0.66 0 1.32 0 2 C-3.13498292 3.85776765 -5.37471432 4.20140476 -9 4 C-3.7826087 0 -3.7826087 0 0 0 Z " fill="#A85209" transform="translate(922,289)"/>
<path d="M0 0 C0.66 0 1.32 0 2 0 C3.6875 2.375 3.6875 2.375 5 5 C4.67 5.66 4.34 6.32 4 7 C2.02 5.35 0.04 3.7 -2 2 C-1.34 1.34 -0.68 0.68 0 0 Z " fill="#351D13" transform="translate(956,245)"/>
<path d="M0 0 C3.465 1.485 3.465 1.485 7 3 C5.02 3.99 5.02 3.99 3 5 C2.01 4.34 1.02 3.68 0 3 C0 2.01 0 1.02 0 0 Z " fill="#EAE8E7" transform="translate(580,1005)"/>
<path d="M0 0 C0.99 1.32 1.98 2.64 3 4 C2.34 5.32 1.68 6.64 1 8 C-0.42944945 5.64561267 -1.08661261 4.51967567 -0.625 1.75 C-0.41875 1.1725 -0.2125 0.595 0 0 Z " fill="#BF6421" transform="translate(885,744)"/>
<path d="M0 0 C1.98 0 3.96 0 6 0 C5.67 0.99 5.34 1.98 5 3 C3.0625 3.8125 3.0625 3.8125 1 4 C0.34 3.34 -0.32 2.68 -1 2 C-0.67 1.34 -0.34 0.68 0 0 Z " fill="#EDEFEE" transform="translate(83,728)"/>
<path d="M0 0 C0.33 0.66 0.66 1.32 1 2 C-0.2739589 4.03833424 -1.61061923 6.03852126 -3 8 C-3.66 8 -4.32 8 -5 8 C-3.8141763 4.62496331 -2.72426311 2.35277269 0 0 Z " fill="#371601" transform="translate(342,543)"/>
<path d="M0 0 C0.66 0.33 1.32 0.66 2 1 C0.38405168 3.04119788 -1.2856382 5.04072937 -3 7 C-3.66 7 -4.32 7 -5 7 C-3.70700306 4.11562221 -2.34058637 2.12780579 0 0 Z " fill="#F2EAE4" transform="translate(975,420)"/>
<path d="M0 0 C3.63 0.33 7.26 0.66 11 1 C11 1.33 11 1.66 11 2 C7.7 2.33 4.4 2.66 1 3 C0.67 2.01 0.34 1.02 0 0 Z " fill="#EBE6E5" transform="translate(764,335)"/>
<path d="M0 0 C2.31 0.33 4.62 0.66 7 1 C7 1.66 7 2.32 7 3 C5.35 3.33 3.7 3.66 2 4 C1.34 2.68 0.68 1.36 0 0 Z " fill="#ECE6E5" transform="translate(804,301)"/>
</svg>
