<svg xmlns="http://www.w3.org/2000/svg" viewBox="0 0 24 24">
  <path d="M12 2c-2.65 2-5.45 3.25-7.85 3.95l1.05 1.15c2.05-.85 4.35-2.05 6.8-4 2.45 1.95 4.75 3.15 6.8 4l1.05-1.15C17.45 5.25 14.65 4 12 2z"/>
  <path d="M12 7.75a4.55 4.55 0 1 0 0 9.1 4.55 4.55 0 0 0 0-9.1zm0 1.65a2.9 2.9 0 1 1 0 5.8 2.9 2.9 0 0 1 0-5.8z"/>
  <path d="M7.9 12.1h8.2v.95H7.9z"/>
  <path d="M12 10.35c-.78 0-1.4.62-1.4 1.4s.62 1.4 1.4 1.4 1.4-.62 1.4-1.4-.62-1.4-1.4-1.4z"/>
  <path d="M11.35 13.35h1.3v4.55H9.15v1.15h3.5v1.05h1.3v-1.05h3.5v-1.15h-3.5V13.35z"/>
  <path d="M9.1 19.05 12 16.85l2.9 2.2-.75.95L12 18.35l-2.15 1.65-.75-.95z"/>
</svg>
